<?xml version="1.0" standalone="no"?>
<!DOCTYPE svg PUBLIC "-//W3C//DTD SVG 20010904//EN"
 "http://www.w3.org/TR/2001/REC-SVG-20010904/DTD/svg10.dtd">
<svg version="1.0" xmlns="http://www.w3.org/2000/svg"
 width="700.000000pt" height="700.000000pt" viewBox="0 0 700.000000 700.000000"
 preserveAspectRatio="xMidYMid meet">
<metadata>
Created by potrace 1.11, written by Peter Selinger 2001-2013
</metadata>
<g transform="translate(0.000000,700.000000) scale(0.100000,-0.100000)"
fill="#000000" stroke="none">
<path d="M3392 6951 c-4 -3 -61 -134 -126 -291 -110 -265 -127 -299 -149 -300
-10 0 -43 36 -84 91 -18 24 -68 89 -111 144 -43 55 -107 139 -143 186 l-66 86
-101 -26 c-107 -28 -115 -32 -117 -59 -3 -34 -16 -130 -19 -149 -3 -11 -7 -44
-11 -74 -18 -138 -26 -200 -30 -218 -1 -9 -6 -46 -10 -82 -8 -74 -13 -85 -36
-91 -10 -1 -94 56 -195 132 -98 74 -211 160 -252 192 l-75 56 -36 -20 c-167
-94 -159 -87 -151 -127 5 -20 11 -63 14 -96 3 -33 8 -71 11 -85 3 -14 7 -49
10 -78 5 -53 11 -100 20 -157 3 -16 7 -57 11 -90 3 -33 8 -63 10 -67 7 -10 -6
-36 -22 -42 -7 -3 -145 49 -305 115 l-292 120 -25 -23 c-34 -31 -106 -103
-120 -121 -10 -11 5 -56 73 -223 47 -115 89 -218 95 -229 39 -82 59 -149 50
-166 -6 -10 -18 -16 -28 -15 -9 2 -46 7 -82 11 -36 4 -73 9 -83 11 -10 2 -45
6 -78 9 -33 4 -69 8 -80 10 -11 2 -48 7 -82 10 -34 4 -64 8 -67 10 -3 2 -37 6
-76 10 l-71 6 -29 -48 c-16 -26 -36 -59 -43 -73 -8 -14 -20 -34 -27 -45 -11
-18 -6 -28 47 -100 33 -44 70 -93 83 -110 149 -189 243 -321 239 -336 -6 -22
-18 -26 -98 -35 -33 -3 -67 -7 -75 -9 -8 -1 -37 -6 -65 -9 -27 -4 -63 -9 -80
-11 -16 -2 -46 -6 -65 -9 -47 -8 -103 -15 -170 -22 -91 -10 -90 -10 -120 -122
l-28 -102 93 -72 c51 -40 165 -129 253 -197 128 -98 160 -127 157 -143 -3 -12
-6 -22 -7 -23 -2 -2 -55 -24 -118 -50 -63 -26 -128 -53 -145 -61 -16 -7 -95
-40 -175 -73 l-145 -60 -1 -110 -1 -110 46 -19 c25 -11 156 -66 291 -123 135
-56 248 -107 252 -113 5 -6 7 -16 5 -23 -2 -9 -93 -85 -207 -172 -14 -10 -87
-66 -162 -125 l-136 -105 15 -53 c8 -29 19 -73 25 -98 12 -53 19 -62 50 -65
13 -2 43 -6 68 -9 25 -3 63 -8 85 -11 46 -6 178 -24 216 -31 35 -5 93 -13 154
-19 69 -8 82 -13 87 -33 5 -18 -11 -41 -236 -337 -71 -94 -133 -174 -137 -180
-6 -9 75 -163 99 -187 8 -8 158 5 302 27 14 2 51 7 83 10 32 4 66 8 75 10 9 1
46 6 82 10 36 4 73 9 82 10 10 2 22 -4 28 -14 7 -14 -18 -84 -110 -311 -66
-161 -120 -293 -120 -294 0 -3 86 -89 127 -129 l29 -27 125 51 c68 27 138 57
156 65 17 8 34 14 38 14 3 0 25 9 48 19 108 49 220 89 233 84 20 -7 21 -24 9
-113 -9 -72 -13 -105 -20 -165 -3 -27 -8 -61 -10 -75 -2 -14 -7 -49 -10 -79
-4 -30 -8 -62 -10 -72 -2 -10 -7 -47 -10 -82 l-7 -65 88 -52 c49 -28 92 -52
95 -53 8 -2 96 62 346 254 116 89 170 125 184 122 10 -3 19 -8 20 -12 0 -3 2
-15 5 -26 2 -11 6 -40 10 -65 3 -25 16 -121 29 -215 13 -93 27 -192 31 -220 4
-27 8 -61 8 -74 2 -30 9 -34 124 -64 l93 -25 87 112 c48 62 98 127 112 146 52
69 175 226 187 238 26 27 48 2 95 -111 26 -61 81 -193 123 -292 l76 -181 109
0 109 0 19 45 c11 25 66 156 122 291 56 135 104 246 105 248 1 1 12 4 23 7 16
3 39 -21 110 -113 50 -64 116 -151 148 -192 32 -41 79 -102 105 -136 l46 -61
101 26 c55 14 103 29 107 32 7 8 11 27 19 99 4 30 8 66 10 80 3 14 8 48 11 75
4 28 8 59 10 70 1 11 6 47 10 80 4 33 9 67 10 76 2 9 6 40 10 70 14 117 24
118 151 21 403 -309 408 -312 429 -298 11 7 53 32 93 55 45 26 72 48 72 59 -1
15 -10 92 -25 205 -3 20 -7 56 -10 80 -3 23 -8 58 -10 77 -11 79 -15 118 -21
169 -3 30 -7 63 -9 73 -7 34 28 39 91 14 143 -57 346 -141 432 -178 72 -30 97
-37 107 -28 16 13 88 86 123 123 l24 25 -37 88 c-21 49 -43 103 -50 119 -8 17
-28 66 -45 110 -17 44 -38 94 -45 110 -15 33 -65 157 -65 161 0 12 36 34 49
30 9 -3 41 -7 71 -11 30 -3 66 -7 80 -9 14 -3 46 -7 73 -10 42 -5 92 -12 167
-22 92 -12 150 -18 184 -18 42 -1 50 8 121 140 l22 42 -63 83 c-35 46 -67 89
-71 94 -5 6 -22 28 -38 50 -17 22 -36 46 -42 55 -7 8 -48 62 -91 119 -101 132
-100 143 13 156 92 10 178 22 235 31 14 2 50 6 80 10 30 3 57 8 60 9 3 2 37 6
75 10 108 11 105 9 136 123 l27 102 -127 98 c-69 54 -180 140 -246 192 -126
97 -138 110 -130 132 3 7 137 68 298 136 l293 123 0 107 c0 103 -6 123 -36
127 -3 1 -27 11 -54 23 -27 12 -54 22 -60 22 -7 0 -16 4 -21 8 -6 5 -101 47
-213 93 -210 87 -237 106 -196 136 11 8 28 22 39 31 11 9 117 92 237 184 l216
168 -14 52 c-8 29 -21 74 -28 101 -7 26 -16 50 -18 53 -6 5 -28 9 -103 19 -27
3 -111 15 -185 25 -128 18 -170 24 -265 36 -74 9 -78 11 -85 30 -8 20 7 42
253 363 64 84 117 161 117 170 -1 9 -22 52 -49 96 -46 77 -49 80 -86 81 -21 0
-74 -5 -119 -12 -44 -6 -108 -15 -141 -18 -70 -8 -118 -15 -160 -21 -16 -3
-55 -7 -85 -11 -30 -3 -65 -7 -78 -9 -49 -8 -43 51 18 180 6 11 48 114 95 229
96 236 94 204 9 290 -78 79 -76 78 -120 61 -21 -9 -48 -20 -59 -25 -70 -30
-217 -90 -221 -90 -3 0 -30 -11 -60 -25 -30 -14 -57 -25 -60 -25 -3 0 -20 -6
-37 -14 -85 -39 -109 -46 -127 -36 -12 6 -17 18 -15 32 2 13 8 64 15 113 6 50
13 108 16 130 2 22 7 57 9 78 5 40 10 78 23 172 13 97 10 128 -14 140 -12 6
-28 16 -35 21 -8 6 -40 25 -71 42 -45 24 -60 28 -70 19 -7 -7 -121 -93 -253
-192 -144 -109 -247 -180 -257 -177 -20 4 -25 17 -33 92 -3 30 -8 66 -10 80
-2 14 -7 43 -10 65 -6 52 -12 94 -24 180 -6 39 -13 93 -16 120 -10 77 -14 97
-20 104 -4 3 -52 17 -108 32 l-102 25 -85 -112 c-141 -185 -283 -368 -297
-382 -34 -35 -51 -3 -259 503 l-33 80 -105 1 c-58 0 -109 -2 -114 -5z m207
-1390 c42 -22 87 -70 103 -110 14 -36 18 -120 6 -150 -30 -83 -98 -138 -179
-148 -129 -15 -236 72 -245 199 -11 169 164 286 315 209z m1251 -640 c147 -88
136 -301 -21 -381 -55 -29 -155 -22 -208 13 -58 38 -91 93 -98 161 -19 181
171 301 327 207z m-1994 -486 c111 -56 152 -193 90 -299 -91 -155 -313 -144
-387 18 -37 82 -20 176 46 242 69 69 163 83 251 39z m-422 -742 c38 -19 93
-79 104 -113 44 -131 -37 -273 -169 -295 -172 -29 -309 159 -229 315 54 104
189 147 294 93z m1170 -2 c125 -71 151 -232 54 -340 -38 -42 -82 -62 -144 -66
-158 -10 -270 139 -217 289 21 63 79 118 141 136 46 13 124 4 166 -19z m1639
-5 c77 -45 113 -115 104 -207 -19 -215 -309 -269 -409 -76 -41 81 -21 194 47
257 66 61 179 73 258 26z m-2558 -897 c80 -38 128 -116 124 -204 -3 -64 -28
-114 -79 -158 -138 -118 -351 -21 -353 161 -2 163 162 270 308 201z m1980
-164 c17 -7 43 -25 59 -41 87 -89 87 -223 0 -311 -142 -142 -388 -25 -368 176
15 150 165 235 309 176z m-1092 -321 c142 -48 189 -236 89 -351 -72 -82 -221
-91 -304 -18 -98 86 -96 256 3 334 64 50 134 62 212 35z"/>
</g>
</svg>
