<?xml version="1.0"?>
<svg xmlns="http://www.w3.org/2000/svg" width="1024" height="1024" viewBox="0 0 240 240">
	<style>
		#gear {
		fill: #CBCBCB;
		fill-opacity: 1;
		stroke: #000000;
		stroke-width: 5;
		}
	</style>
	<g>
		<path id="gear" fill-rule="evenodd" d="M 235.99999999999906 120.00000613951559 L 236.00000064292763 117.9056110371225 L 216.00000321464285 109.52802448803455 L 215.45881475058644 105.26264115316155 L 232.61330413439705 91.99963442393206 L 231.5304618279125 87.95322664430807 L 210.04460321816356 85.03060225504159 L 208.39345151760983 81.06029550916517 L 221.51713816090728 63.7989889998828 L 219.4210551612852 60.17236530305268 L 197.91303651949954 62.92717702501453 L 195.2870829374705 59.522565003363354 L 203.50537573259473 39.45658590807706 L 200.54345393455966 36.49466378856765 L 180.47747394729515 44.71295440581632 L 177.07287189781775 42.087020827880885 L 179.8277020195955 20.579004542807 L 176.20108011593715 18.48291844065855 L 158.93976237952597 31.606590317138647 L 154.96947949099487 29.95542041526398 L 152.04687238260647 8.469559454882265 L 148.00046547390383 7.386713893909729 L 134.73744494748166 24.5411926104013 L 130.47199840014764 24.000006427366564 L 122.09443017367764 4.000001324124765 L 117.90563996889202 3.99999877250201 L 109.52804737621956 23.999993669252788 L 105.2626639470525 24.54117011510519 L 91.99965662030587 7.386681193265431 L 87.95324887839894 8.469523640692593 L 85.03062523751782 29.955382352241 L 81.06031255270084 31.60654783121261 L 63.79900095957008 18.48286787459574 L 60.172378074720214 20.578952279098004 L 62.92719812845149 42.08696985372393 L 59.522561088204775 44.7129398502518 L 39.45658188142053 36.494647327363595 L 36.494659802095654 39.45656916558319 L 44.71295069158036 59.52254904134979 L 42.08696943036871 62.92719953735423 L 20.578952596414616 60.17237370089833 L 18.482867216845257 63.79899602218711 L 31.606542532521924 81.06031114379812 L 29.955393644714295 85.03058704997117 L 8.46953497697006 87.95321101288148 L 7.3866925901902984 91.999618771018 L 24.541181710815486 105.26262584065383 L 24.000001205492 109.52803974682317 L 4.000000241098537 117.90561785407577 L 3.99999975890174 122.09440805886213 L 23.999998794508013 130.47199077075499 L 24.54117222493576 134.73736753717637 L 7.386688039035119 148.00038098942554 L 8.469531931348413 152.04678834467217 L 29.955391686502235 154.9694043134096 L 31.606563250323113 158.93971405751878 L 18.482882988479194 176.2010254185871 L 20.57896732885288 179.82764834050147 L 42.08698495219153 177.0728286670906 L 44.71294155948994 180.47745436869684 L 36.494639236164275 200.5434295615769 L 39.45655962774916 203.50535308753564 L 59.52254351741436 195.2870719984907 L 62.92713555057533 197.91302041770842 L 60.172321828813566 219.4210388033536 L 63.79894533075141 221.51712214017647 L 81.06025306026454 208.3934371018228 L 85.03060257452539 210.04460202430414 L 87.95322442810131 231.53046097897146 L 91.99963207993177 232.6133037629998 L 105.26264083367772 215.45881594444586 L 109.5280168586395 216 L 117.90559726821228 236 L 122.09438747299866 236 L 130.47196788257145 216 L 134.73735100256945 215.4588139476349 L 148.00035637017402 232.6133043841868 L 152.0467642357478 231.53046239888283 L 154.9693903304384 210.0446040211151 L 158.93971072727643 208.39344910753468 L 176.20101374801663 221.51714033923633 L 179.82763800202792 219.42105830364434 L 177.07283199733288 197.91303892957472 L 180.47742776908504 195.28709859810246 L 200.54340731036046 203.50539030428894 L 203.5053292691327 200.54346834551671 L 195.28703756294624 180.47748880424126 L 197.91303100287584 177.07282741592974 L 219.421047968469 179.8276522246271 L 221.51713317474054 176.20102980317708 L 208.3934570342336 158.93971530867967 L 210.04458836085036 154.9694588875519 L 231.53044685460867 152.04683364557326 L 232.6132890005029 148.00042582297436 L 215.45879909032158 134.73741977455742 L 215.99999678535715 130.4719755119655 L 235.9999993570705 122.09440124190868 Z
             M 130 120 A 10 10 0 1 0 110 120 A 10 10 0 0 0 130 120 Z
             M 104.54415587728428 94.54415587728428 A 10 10 0 1 0 84.54415587728428 94.54415587728428 A 10 10 0 0 0 104.54415587728428 94.54415587728428 Z
             M 90 120 A 10 10 0 1 0 70 120 A 10 10 0 0 0 90 120 Z
             M 98.88730162779189 151.11269837220806 A 10 10 0 1 0 78.88730162779189 151.11269837220806 A 10 10 0 0 0 98.88730162779189 151.11269837220806 Z
             M 130 168 A 10 10 0 1 0 109.99999999999999 168 A 10 10 0 0 0 130 168 Z
             M 166.76955262170046 156.76955262170048 A 10 10 0 1 0 146.76955262170046 156.76955262170048 A 10 10 0 0 0 166.76955262170046 156.76955262170048 Z
             M 186 120.00000000000001 A 10 10 0 1 0 166 120.00000000000001 A 10 10 0 0 0 186 120.00000000000001 Z
             M 172.4264068711929 77.5735931288072 A 10 10 0 1 0 152.4264068711929 77.5735931288072 A 10 10 0 0 0 172.4264068711929 77.5735931288072 Z
             M 130 56 A 10 10 0 1 0 110 56 A 10 10 0 0 0 130 56 Z
            " />
	</g>
</svg>
