<?xml version="1.0" ?><!DOCTYPE svg  PUBLIC '-//W3C//DTD SVG 1.1//EN'  'http://www.w3.org/Graphics/SVG/1.1/DTD/svg11.dtd'><svg height="100%" style="fill-rule:evenodd;clip-rule:evenodd;stroke-linejoin:round;stroke-miterlimit:2;" version="1.1" viewBox="0 0 512 512" width="100%" xml:space="preserve" xmlns="http://www.w3.org/2000/svg" xmlns:serif="http://www.serif.com/" xmlns:xlink="http://www.w3.org/1999/xlink"><g><path d="M256.384,0.197c-141.727,0 -256.375,114.658 -256.375,255.618c0,140.961 114.648,255.987 256.375,255.987c140.944,0 255.625,-115.026 255.625,-255.987c0,-141.714 -114.681,-255.618 -255.625,-255.618Z" style="fill:#061a34;fill-rule:nonzero;"/><path d="M276.221,313.485c0,23.066 11.647,31.04 30.179,31.04l26.296,0l0,58.636l-49.787,0c-44.828,0 -78.237,-23.07 -78.237,-78.254l0,-88.374l-40.75,0l0,-47.849c44.828,-11.644 63.588,-50.228 65.742,-83.64l46.557,0l0,75.878l54.322,0l0,55.611l-54.322,0l0,76.952Z" style="fill:#fff;fill-rule:nonzero;"/></g></svg>