<?xml version="1.0"?>
<svg xmlns="http://www.w3.org/2000/svg" xmlns:inspiral="http://nathanfriend.io/inspiral">
  <style>
    text {
      font-family: monospace;
      font-size: 4px;
    }
  </style>
  <g>
    <mask id="holes">
			<rect width="100%" height="100%" fill="white" />
			<circle cx="48" cy="48" r="2" inspiral:hole-name="0" />
      <text x="45" y="49" text-anchor="end">0</text>
			<circle cx="48" cy="42" r="2" inspiral:hole-name="6" />
      <text x="45" y="43" text-anchor="end">6</text>
			<circle cx="48" cy="36" r="2" inspiral:hole-name="12" />
      <text x="45" y="37" text-anchor="end">12</text>
			<circle cx="48" cy="30" r="2" inspiral:hole-name="18" />
      <text x="45" y="31" text-anchor="end">18</text>
			<circle cx="48" cy="24" r="2" inspiral:hole-name="24" />
      <text x="45" y="25" text-anchor="end">24</text>
			<circle cx="48" cy="18" r="2" inspiral:hole-name="30" />
      <text x="45" y="19" text-anchor="end">30</text>
			<circle cx="48" cy="12" r="2" inspiral:hole-name="36" />
      <text x="45" y="13" text-anchor="end">36</text>
			<circle cx="48" cy="6" r="2" inspiral:hole-name="42" />
      <text x="45" y="7" text-anchor="end">42</text>
			<circle cx="41.937822173508934" cy="44.5" r="2" inspiral:hole-name="7" />
      <text x="38.937822173508934" y="45.5" text-anchor="end">7</text>
			<circle cx="36.7416697508023" cy="41.49999999999999" r="2" inspiral:hole-name="13" />
      <text x="33.7416697508023" y="42.49999999999999" text-anchor="end">13</text>
			<circle cx="31.54551732809567" cy="38.49999999999999" r="2" inspiral:hole-name="19" />
      <text x="28.54551732809567" y="39.49999999999999" text-anchor="end">19</text>
			<circle cx="26.349364905389038" cy="35.49999999999999" r="2" inspiral:hole-name="25" />
      <text x="23.349364905389038" y="36.49999999999999" text-anchor="end">25</text>
			<circle cx="21.153212482682406" cy="32.499999999999986" r="2" inspiral:hole-name="31" />
      <text x="18.153212482682406" y="33.499999999999986" text-anchor="end">31</text>
			<circle cx="15.957060059975774" cy="29.49999999999999" r="2" inspiral:hole-name="37" />
      <text x="12.957060059975774" y="30.49999999999999" text-anchor="end">37</text>
			<circle cx="41.071796769724486" cy="52" r="2" inspiral:hole-name="8" />
      <text x="38.071796769724486" y="53" text-anchor="end">8</text>
			<circle cx="35.875644347017854" cy="55" r="2" inspiral:hole-name="14" />
      <text x="32.875644347017854" y="56" text-anchor="end">14</text>
			<circle cx="30.679491924311222" cy="57.99999999999999" r="2" inspiral:hole-name="20" />
      <text x="27.679491924311222" y="58.99999999999999" text-anchor="end">20</text>
			<circle cx="25.48333950160459" cy="60.99999999999999" r="2" inspiral:hole-name="26" />
      <text x="22.48333950160459" y="61.99999999999999" text-anchor="end">26</text>
			<circle cx="20.287187078897958" cy="63.99999999999999" r="2" inspiral:hole-name="32" />
      <text x="17.287187078897958" y="65" text-anchor="end">32</text>
			<circle cx="15.091034656191326" cy="66.99999999999999" r="2" inspiral:hole-name="38" />
      <text x="12.091034656191326" y="67.99999999999999" text-anchor="end">38</text>
			<circle cx="48" cy="57" r="2" inspiral:hole-name="9" />
      <text x="45" y="58" text-anchor="end">9</text>
			<circle cx="48" cy="63" r="2" inspiral:hole-name="15" />
      <text x="45" y="64" text-anchor="end">15</text>
			<circle cx="47.99999999999999" cy="69" r="2" inspiral:hole-name="21" />
      <text x="44.99999999999999" y="70" text-anchor="end">21</text>
			<circle cx="47.99999999999999" cy="75" r="2" inspiral:hole-name="27" />
      <text x="44.99999999999999" y="76" text-anchor="end">27</text>
			<circle cx="47.99999999999999" cy="81" r="2" inspiral:hole-name="33" />
      <text x="44.99999999999999" y="82" text-anchor="end">33</text>
			<circle cx="47.99999999999999" cy="87" r="2" inspiral:hole-name="39" />
      <text x="44.99999999999999" y="88" text-anchor="end">39</text>
			<circle cx="56.66025403784438" cy="53.00000000000001" r="2" inspiral:hole-name="10" />
      <text x="53.66025403784438" y="54.00000000000001" text-anchor="end">10</text>
			<circle cx="61.856406460551014" cy="56.00000000000001" r="2" inspiral:hole-name="16" />
      <text x="58.856406460551014" y="57.00000000000001" text-anchor="end">16</text>
			<circle cx="67.05255888325765" cy="59.000000000000014" r="2" inspiral:hole-name="22" />
      <text x="64.05255888325765" y="60.000000000000014" text-anchor="end">22</text>
			<circle cx="72.24871130596428" cy="62.000000000000014" r="2" inspiral:hole-name="28" />
      <text x="69.24871130596428" y="63.000000000000014" text-anchor="end">28</text>
			<circle cx="77.4448637286709" cy="65.00000000000001" r="2" inspiral:hole-name="34" />
      <text x="74.4448637286709" y="66.00000000000001" text-anchor="end">34</text>
			<circle cx="82.64101615137753" cy="68.00000000000001" r="2" inspiral:hole-name="40" />
      <text x="79.64101615137753" y="69.00000000000001" text-anchor="end">40</text>
			<circle cx="57.52627944162883" cy="42.50000000000001" r="2" inspiral:hole-name="11" />
      <text x="54.52627944162883" y="43.50000000000001" text-anchor="end">11</text>
			<circle cx="62.72243186433546" cy="39.500000000000014" r="2" inspiral:hole-name="17" />
      <text x="59.72243186433546" y="40.500000000000014" text-anchor="end">17</text>
			<circle cx="67.9185842870421" cy="36.500000000000014" r="2" inspiral:hole-name="23" />
      <text x="64.9185842870421" y="37.500000000000014" text-anchor="end">23</text>
			<circle cx="73.11473670974874" cy="33.50000000000002" r="2" inspiral:hole-name="29" />
      <text x="70.11473670974874" y="34.50000000000002" text-anchor="end">29</text>
			<circle cx="78.31088913245537" cy="30.500000000000025" r="2" inspiral:hole-name="35" />
      <text x="75.31088913245537" y="31.500000000000025" text-anchor="end">35</text>
			<circle cx="83.507041555162" cy="27.50000000000003" r="2" inspiral:hole-name="41" />
      <text x="80.507041555162" y="28.50000000000003" text-anchor="end">41</text>
		</mask>
    <path mask="url(#holes)"
          d="M 96 48
             A 48 48 0 1 0 0 48
             A 48 48 0 0 0 96 48
             Z" />
  </g>
</svg>
