<?xml version="1.0"?>
<svg xmlns="http://www.w3.org/2000/svg" xmlns:inspiral="http://nathanfriend.io/inspiral">
  <style>
    text {
      font-family: monospace;
      font-size: 4px;
    }
  </style>
  <g>
    <mask id="holes">
			<rect width="100%" height="100%" fill="white" />
			<circle cx="72" cy="72" r="2" inspiral:hole-name="0" />
      <text x="69" y="73" text-anchor="end">0</text>
			<circle cx="72" cy="66" r="2" inspiral:hole-name="6" />
      <text x="69" y="67" text-anchor="end">6</text>
			<circle cx="72" cy="60" r="2" inspiral:hole-name="12" />
      <text x="69" y="61" text-anchor="end">12</text>
			<circle cx="72" cy="54" r="2" inspiral:hole-name="18" />
      <text x="69" y="55" text-anchor="end">18</text>
			<circle cx="72" cy="48" r="2" inspiral:hole-name="24" />
      <text x="69" y="49" text-anchor="end">24</text>
			<circle cx="72" cy="42" r="2" inspiral:hole-name="30" />
      <text x="69" y="43" text-anchor="end">30</text>
			<circle cx="72" cy="36" r="2" inspiral:hole-name="36" />
      <text x="69" y="37" text-anchor="end">36</text>
			<circle cx="72" cy="30" r="2" inspiral:hole-name="42" />
      <text x="69" y="31" text-anchor="end">42</text>
			<circle cx="72" cy="24" r="2" inspiral:hole-name="48" />
      <text x="69" y="25" text-anchor="end">48</text>
			<circle cx="72" cy="18" r="2" inspiral:hole-name="54" />
      <text x="69" y="19" text-anchor="end">54</text>
			<circle cx="72" cy="12" r="2" inspiral:hole-name="60" />
      <text x="69" y="13" text-anchor="end">60</text>
			<circle cx="72" cy="6" r="2" inspiral:hole-name="66" />
      <text x="69" y="7" text-anchor="end">66</text>
			<circle cx="65.93782217350893" cy="68.5" r="2" inspiral:hole-name="7" />
      <text x="62.937822173508934" y="69.5" text-anchor="end">7</text>
			<circle cx="60.7416697508023" cy="65.5" r="2" inspiral:hole-name="13" />
      <text x="57.7416697508023" y="66.5" text-anchor="end">13</text>
			<circle cx="55.54551732809567" cy="62.49999999999999" r="2" inspiral:hole-name="19" />
      <text x="52.54551732809567" y="63.49999999999999" text-anchor="end">19</text>
			<circle cx="50.34936490538904" cy="59.49999999999999" r="2" inspiral:hole-name="25" />
      <text x="47.34936490538904" y="60.49999999999999" text-anchor="end">25</text>
			<circle cx="45.153212482682406" cy="56.499999999999986" r="2" inspiral:hole-name="31" />
      <text x="42.153212482682406" y="57.499999999999986" text-anchor="end">31</text>
			<circle cx="39.957060059975774" cy="53.499999999999986" r="2" inspiral:hole-name="37" />
      <text x="36.957060059975774" y="54.499999999999986" text-anchor="end">37</text>
			<circle cx="34.76090763726914" cy="50.499999999999986" r="2" inspiral:hole-name="43" />
      <text x="31.760907637269142" y="51.499999999999986" text-anchor="end">43</text>
			<circle cx="29.564755214562517" cy="47.499999999999986" r="2" inspiral:hole-name="49" />
      <text x="26.564755214562517" y="48.499999999999986" text-anchor="end">49</text>
			<circle cx="24.368602791855885" cy="44.499999999999986" r="2" inspiral:hole-name="55" />
      <text x="21.368602791855885" y="45.499999999999986" text-anchor="end">55</text>
			<circle cx="19.172450369149253" cy="41.49999999999998" r="2" inspiral:hole-name="61" />
      <text x="16.172450369149253" y="42.49999999999998" text-anchor="end">61</text>
			<circle cx="65.07179676972449" cy="76" r="2" inspiral:hole-name="8" />
      <text x="62.071796769724486" y="77" text-anchor="end">8</text>
			<circle cx="59.875644347017854" cy="79" r="2" inspiral:hole-name="14" />
      <text x="56.875644347017854" y="80" text-anchor="end">14</text>
			<circle cx="54.67949192431122" cy="82" r="2" inspiral:hole-name="20" />
      <text x="51.67949192431122" y="83" text-anchor="end">20</text>
			<circle cx="49.48333950160459" cy="85" r="2" inspiral:hole-name="26" />
      <text x="46.48333950160459" y="86" text-anchor="end">26</text>
			<circle cx="44.28718707889796" cy="87.99999999999999" r="2" inspiral:hole-name="32" />
      <text x="41.28718707889796" y="88.99999999999999" text-anchor="end">32</text>
			<circle cx="39.091034656191326" cy="90.99999999999999" r="2" inspiral:hole-name="38" />
      <text x="36.091034656191326" y="91.99999999999999" text-anchor="end">38</text>
			<circle cx="33.894882233484694" cy="93.99999999999999" r="2" inspiral:hole-name="44" />
      <text x="30.894882233484694" y="94.99999999999999" text-anchor="end">44</text>
			<circle cx="28.69872981077806" cy="96.99999999999999" r="2" inspiral:hole-name="50" />
      <text x="25.69872981077806" y="97.99999999999999" text-anchor="end">50</text>
			<circle cx="23.50257738807143" cy="99.99999999999999" r="2" inspiral:hole-name="56" />
      <text x="20.50257738807143" y="100.99999999999999" text-anchor="end">56</text>
			<circle cx="18.30642496536479" cy="102.99999999999999" r="2" inspiral:hole-name="62" />
      <text x="15.30642496536479" y="103.99999999999999" text-anchor="end">62</text>
			<circle cx="72" cy="81" r="2" inspiral:hole-name="9" />
      <text x="69" y="82" text-anchor="end">9</text>
			<circle cx="72" cy="87" r="2" inspiral:hole-name="15" />
      <text x="69" y="88" text-anchor="end">15</text>
			<circle cx="72" cy="93" r="2" inspiral:hole-name="21" />
      <text x="69" y="94" text-anchor="end">21</text>
			<circle cx="72" cy="99" r="2" inspiral:hole-name="27" />
      <text x="69" y="100" text-anchor="end">27</text>
			<circle cx="72" cy="105" r="2" inspiral:hole-name="33" />
      <text x="69" y="106" text-anchor="end">33</text>
			<circle cx="71.99999999999999" cy="111" r="2" inspiral:hole-name="39" />
      <text x="68.99999999999999" y="112" text-anchor="end">39</text>
			<circle cx="71.99999999999999" cy="117" r="2" inspiral:hole-name="45" />
      <text x="68.99999999999999" y="118" text-anchor="end">45</text>
			<circle cx="71.99999999999999" cy="123" r="2" inspiral:hole-name="51" />
      <text x="68.99999999999999" y="124" text-anchor="end">51</text>
			<circle cx="71.99999999999999" cy="129" r="2" inspiral:hole-name="57" />
      <text x="68.99999999999999" y="130" text-anchor="end">57</text>
			<circle cx="71.99999999999999" cy="135" r="2" inspiral:hole-name="63" />
      <text x="68.99999999999999" y="136" text-anchor="end">63</text>
			<circle cx="80.66025403784438" cy="77" r="2" inspiral:hole-name="10" />
      <text x="77.66025403784438" y="78" text-anchor="end">10</text>
			<circle cx="85.85640646055101" cy="80" r="2" inspiral:hole-name="16" />
      <text x="82.85640646055101" y="81" text-anchor="end">16</text>
			<circle cx="91.05255888325765" cy="83.00000000000001" r="2" inspiral:hole-name="22" />
      <text x="88.05255888325765" y="84.00000000000001" text-anchor="end">22</text>
			<circle cx="96.24871130596428" cy="86.00000000000001" r="2" inspiral:hole-name="28" />
      <text x="93.24871130596428" y="87.00000000000001" text-anchor="end">28</text>
			<circle cx="101.4448637286709" cy="89.00000000000001" r="2" inspiral:hole-name="34" />
      <text x="98.4448637286709" y="90.00000000000001" text-anchor="end">34</text>
			<circle cx="106.64101615137753" cy="92.00000000000001" r="2" inspiral:hole-name="40" />
      <text x="103.64101615137753" y="93.00000000000001" text-anchor="end">40</text>
			<circle cx="111.83716857408416" cy="95.00000000000003" r="2" inspiral:hole-name="46" />
      <text x="108.83716857408416" y="96.00000000000003" text-anchor="end">46</text>
			<circle cx="117.03332099679079" cy="98.00000000000003" r="2" inspiral:hole-name="52" />
      <text x="114.03332099679079" y="99.00000000000003" text-anchor="end">52</text>
			<circle cx="122.22947341949742" cy="101.00000000000003" r="2" inspiral:hole-name="58" />
      <text x="119.22947341949742" y="102.00000000000003" text-anchor="end">58</text>
			<circle cx="127.42562584220406" cy="104.00000000000003" r="2" inspiral:hole-name="64" />
      <text x="124.42562584220406" y="105.00000000000003" text-anchor="end">64</text>
			<circle cx="81.52627944162883" cy="66.50000000000001" r="2" inspiral:hole-name="11" />
      <text x="78.52627944162883" y="67.50000000000001" text-anchor="end">11</text>
			<circle cx="86.72243186433546" cy="63.500000000000014" r="2" inspiral:hole-name="17" />
      <text x="83.72243186433546" y="64.50000000000001" text-anchor="end">17</text>
			<circle cx="91.9185842870421" cy="60.500000000000014" r="2" inspiral:hole-name="23" />
      <text x="88.9185842870421" y="61.500000000000014" text-anchor="end">23</text>
			<circle cx="97.11473670974874" cy="57.50000000000002" r="2" inspiral:hole-name="29" />
      <text x="94.11473670974874" y="58.50000000000002" text-anchor="end">29</text>
			<circle cx="102.31088913245537" cy="54.50000000000003" r="2" inspiral:hole-name="35" />
      <text x="99.31088913245537" y="55.50000000000003" text-anchor="end">35</text>
			<circle cx="107.507041555162" cy="51.50000000000003" r="2" inspiral:hole-name="41" />
      <text x="104.507041555162" y="52.50000000000003" text-anchor="end">41</text>
			<circle cx="112.70319397786864" cy="48.500000000000036" r="2" inspiral:hole-name="47" />
      <text x="109.70319397786864" y="49.500000000000036" text-anchor="end">47</text>
			<circle cx="117.89934640057527" cy="45.50000000000004" r="2" inspiral:hole-name="53" />
      <text x="114.89934640057527" y="46.50000000000004" text-anchor="end">53</text>
			<circle cx="123.0954988232819" cy="42.50000000000004" r="2" inspiral:hole-name="59" />
      <text x="120.0954988232819" y="43.50000000000004" text-anchor="end">59</text>
			<circle cx="128.29165124598853" cy="39.50000000000005" r="2" inspiral:hole-name="65" />
      <text x="125.29165124598853" y="40.50000000000005" text-anchor="end">65</text>
		</mask>
    <path mask="url(#holes)"
          d="M 144 72
             A 72 72 0 1 0 0 72
             A 72 72 0 0 0 144 72
             Z" />
  </g>
</svg>
