<?xml version="1.0"?>
<svg xmlns="http://www.w3.org/2000/svg" xmlns:inspiral="http://nathanfriend.io/inspiral">
  <style>
    text {
      font-family: monospace;
      font-size: 4px;
    }
  </style>
  <g>
    <mask id="holes">
			<rect width="100%" height="100%" fill="white" />
			<circle cx="42" cy="42" r="2" inspiral:hole-name="0" />
      <text x="39" y="43" text-anchor="end">0</text>
			<circle cx="42" cy="36" r="2" inspiral:hole-name="6" />
      <text x="39" y="37" text-anchor="end">6</text>
			<circle cx="42" cy="30" r="2" inspiral:hole-name="12" />
      <text x="39" y="31" text-anchor="end">12</text>
			<circle cx="42" cy="24" r="2" inspiral:hole-name="18" />
      <text x="39" y="25" text-anchor="end">18</text>
			<circle cx="42" cy="18" r="2" inspiral:hole-name="24" />
      <text x="39" y="19" text-anchor="end">24</text>
			<circle cx="42" cy="12" r="2" inspiral:hole-name="30" />
      <text x="39" y="13" text-anchor="end">30</text>
			<circle cx="42" cy="6" r="2" inspiral:hole-name="36" />
      <text x="39" y="7" text-anchor="end">36</text>
			<circle cx="35.937822173508934" cy="38.5" r="2" inspiral:hole-name="7" />
      <text x="32.937822173508934" y="39.5" text-anchor="end">7</text>
			<circle cx="30.741669750802302" cy="35.49999999999999" r="2" inspiral:hole-name="13" />
      <text x="27.741669750802302" y="36.49999999999999" text-anchor="end">13</text>
			<circle cx="25.54551732809567" cy="32.49999999999999" r="2" inspiral:hole-name="19" />
      <text x="22.54551732809567" y="33.49999999999999" text-anchor="end">19</text>
			<circle cx="20.349364905389038" cy="29.499999999999993" r="2" inspiral:hole-name="25" />
      <text x="17.349364905389038" y="30.499999999999993" text-anchor="end">25</text>
			<circle cx="15.153212482682406" cy="26.49999999999999" r="2" inspiral:hole-name="31" />
      <text x="12.153212482682406" y="27.49999999999999" text-anchor="end">31</text>
			<circle cx="35.071796769724486" cy="46" r="2" inspiral:hole-name="8" />
      <text x="32.071796769724486" y="47" text-anchor="end">8</text>
			<circle cx="29.875644347017857" cy="49" r="2" inspiral:hole-name="14" />
      <text x="26.875644347017857" y="50" text-anchor="end">14</text>
			<circle cx="24.679491924311222" cy="51.99999999999999" r="2" inspiral:hole-name="20" />
      <text x="21.679491924311222" y="52.99999999999999" text-anchor="end">20</text>
			<circle cx="19.48333950160459" cy="54.99999999999999" r="2" inspiral:hole-name="26" />
      <text x="16.48333950160459" y="55.99999999999999" text-anchor="end">26</text>
			<circle cx="14.287187078897958" cy="57.99999999999999" r="2" inspiral:hole-name="32" />
      <text x="11.287187078897958" y="58.99999999999999" text-anchor="end">32</text>
			<circle cx="42" cy="51" r="2" inspiral:hole-name="9" />
      <text x="39" y="52" text-anchor="end">9</text>
			<circle cx="42" cy="57" r="2" inspiral:hole-name="15" />
      <text x="39" y="58" text-anchor="end">15</text>
			<circle cx="41.99999999999999" cy="63" r="2" inspiral:hole-name="21" />
      <text x="38.99999999999999" y="64" text-anchor="end">21</text>
			<circle cx="41.99999999999999" cy="69" r="2" inspiral:hole-name="27" />
      <text x="38.99999999999999" y="70" text-anchor="end">27</text>
			<circle cx="41.99999999999999" cy="75" r="2" inspiral:hole-name="33" />
      <text x="38.99999999999999" y="76" text-anchor="end">33</text>
			<circle cx="50.66025403784438" cy="47.00000000000001" r="2" inspiral:hole-name="10" />
      <text x="47.66025403784438" y="48.00000000000001" text-anchor="end">10</text>
			<circle cx="55.856406460551014" cy="50.00000000000001" r="2" inspiral:hole-name="16" />
      <text x="52.856406460551014" y="51.00000000000001" text-anchor="end">16</text>
			<circle cx="61.052558883257646" cy="53.000000000000014" r="2" inspiral:hole-name="22" />
      <text x="58.052558883257646" y="54.000000000000014" text-anchor="end">22</text>
			<circle cx="66.24871130596428" cy="56.000000000000014" r="2" inspiral:hole-name="28" />
      <text x="63.24871130596428" y="57.000000000000014" text-anchor="end">28</text>
			<circle cx="71.4448637286709" cy="59.000000000000014" r="2" inspiral:hole-name="34" />
      <text x="68.4448637286709" y="60.000000000000014" text-anchor="end">34</text>
			<circle cx="51.52627944162883" cy="36.50000000000001" r="2" inspiral:hole-name="11" />
      <text x="48.52627944162883" y="37.50000000000001" text-anchor="end">11</text>
			<circle cx="56.72243186433546" cy="33.500000000000014" r="2" inspiral:hole-name="17" />
      <text x="53.72243186433546" y="34.500000000000014" text-anchor="end">17</text>
			<circle cx="61.918584287042094" cy="30.500000000000014" r="2" inspiral:hole-name="23" />
      <text x="58.918584287042094" y="31.500000000000014" text-anchor="end">23</text>
			<circle cx="67.11473670974874" cy="27.50000000000002" r="2" inspiral:hole-name="29" />
      <text x="64.11473670974874" y="28.50000000000002" text-anchor="end">29</text>
			<circle cx="72.31088913245537" cy="24.500000000000025" r="2" inspiral:hole-name="35" />
      <text x="69.31088913245537" y="25.500000000000025" text-anchor="end">35</text>
		</mask>
    <path mask="url(#holes)"
          d="M 84 42
             A 42 42 0 1 0 0 42
             A 42 42 0 0 0 84 42
             Z" />
  </g>
</svg>
