<?xml version="1.0"?>
<svg xmlns="http://www.w3.org/2000/svg" xmlns:inspiral="http://nathanfriend.io/inspiral">
  <style>
    text {
      font-family: monospace;
      font-size: 4px;
    }
  </style>
  <g>
    <mask id="holes">
			<rect width="100%" height="100%" fill="white" />
			<circle cx="60" cy="60" r="2" inspiral:hole-name="0" />
      <text x="57" y="61" text-anchor="end">0</text>
			<circle cx="60" cy="54" r="2" inspiral:hole-name="6" />
      <text x="57" y="55" text-anchor="end">6</text>
			<circle cx="60" cy="48" r="2" inspiral:hole-name="12" />
      <text x="57" y="49" text-anchor="end">12</text>
			<circle cx="60" cy="42" r="2" inspiral:hole-name="18" />
      <text x="57" y="43" text-anchor="end">18</text>
			<circle cx="60" cy="36" r="2" inspiral:hole-name="24" />
      <text x="57" y="37" text-anchor="end">24</text>
			<circle cx="60" cy="30" r="2" inspiral:hole-name="30" />
      <text x="57" y="31" text-anchor="end">30</text>
			<circle cx="60" cy="24" r="2" inspiral:hole-name="36" />
      <text x="57" y="25" text-anchor="end">36</text>
			<circle cx="60" cy="18" r="2" inspiral:hole-name="42" />
      <text x="57" y="19" text-anchor="end">42</text>
			<circle cx="60" cy="12" r="2" inspiral:hole-name="48" />
      <text x="57" y="13" text-anchor="end">48</text>
			<circle cx="60" cy="6" r="2" inspiral:hole-name="54" />
      <text x="57" y="7" text-anchor="end">54</text>
			<circle cx="53.937822173508934" cy="56.5" r="2" inspiral:hole-name="7" />
      <text x="50.937822173508934" y="57.5" text-anchor="end">7</text>
			<circle cx="48.7416697508023" cy="53.49999999999999" r="2" inspiral:hole-name="13" />
      <text x="45.7416697508023" y="54.49999999999999" text-anchor="end">13</text>
			<circle cx="43.54551732809567" cy="50.49999999999999" r="2" inspiral:hole-name="19" />
      <text x="40.54551732809567" y="51.49999999999999" text-anchor="end">19</text>
			<circle cx="38.34936490538904" cy="47.49999999999999" r="2" inspiral:hole-name="25" />
      <text x="35.34936490538904" y="48.49999999999999" text-anchor="end">25</text>
			<circle cx="33.153212482682406" cy="44.499999999999986" r="2" inspiral:hole-name="31" />
      <text x="30.153212482682406" y="45.499999999999986" text-anchor="end">31</text>
			<circle cx="27.957060059975774" cy="41.499999999999986" r="2" inspiral:hole-name="37" />
      <text x="24.957060059975774" y="42.499999999999986" text-anchor="end">37</text>
			<circle cx="22.760907637269142" cy="38.499999999999986" r="2" inspiral:hole-name="43" />
      <text x="19.760907637269142" y="39.499999999999986" text-anchor="end">43</text>
			<circle cx="17.564755214562517" cy="35.499999999999986" r="2" inspiral:hole-name="49" />
      <text x="14.564755214562517" y="36.499999999999986" text-anchor="end">49</text>
			<circle cx="53.071796769724486" cy="64" r="2" inspiral:hole-name="8" />
      <text x="50.071796769724486" y="65" text-anchor="end">8</text>
			<circle cx="47.875644347017854" cy="67" r="2" inspiral:hole-name="14" />
      <text x="44.875644347017854" y="68" text-anchor="end">14</text>
			<circle cx="42.67949192431122" cy="70" r="2" inspiral:hole-name="20" />
      <text x="39.67949192431122" y="71" text-anchor="end">20</text>
			<circle cx="37.48333950160459" cy="73" r="2" inspiral:hole-name="26" />
      <text x="34.48333950160459" y="74" text-anchor="end">26</text>
			<circle cx="32.28718707889796" cy="75.99999999999999" r="2" inspiral:hole-name="32" />
      <text x="29.287187078897958" y="76.99999999999999" text-anchor="end">32</text>
			<circle cx="27.091034656191326" cy="78.99999999999999" r="2" inspiral:hole-name="38" />
      <text x="24.091034656191326" y="79.99999999999999" text-anchor="end">38</text>
			<circle cx="21.894882233484694" cy="81.99999999999999" r="2" inspiral:hole-name="44" />
      <text x="18.894882233484694" y="82.99999999999999" text-anchor="end">44</text>
			<circle cx="16.69872981077806" cy="84.99999999999999" r="2" inspiral:hole-name="50" />
      <text x="13.698729810778062" y="85.99999999999999" text-anchor="end">50</text>
			<circle cx="60" cy="69" r="2" inspiral:hole-name="9" />
      <text x="57" y="70" text-anchor="end">9</text>
			<circle cx="60" cy="75" r="2" inspiral:hole-name="15" />
      <text x="57" y="76" text-anchor="end">15</text>
			<circle cx="59.99999999999999" cy="81" r="2" inspiral:hole-name="21" />
      <text x="56.99999999999999" y="82" text-anchor="end">21</text>
			<circle cx="59.99999999999999" cy="87" r="2" inspiral:hole-name="27" />
      <text x="56.99999999999999" y="88" text-anchor="end">27</text>
			<circle cx="59.99999999999999" cy="93" r="2" inspiral:hole-name="33" />
      <text x="56.99999999999999" y="94" text-anchor="end">33</text>
			<circle cx="59.99999999999999" cy="99" r="2" inspiral:hole-name="39" />
      <text x="56.99999999999999" y="100" text-anchor="end">39</text>
			<circle cx="59.99999999999999" cy="105" r="2" inspiral:hole-name="45" />
      <text x="56.99999999999999" y="106" text-anchor="end">45</text>
			<circle cx="59.99999999999999" cy="111" r="2" inspiral:hole-name="51" />
      <text x="56.99999999999999" y="112" text-anchor="end">51</text>
			<circle cx="68.66025403784438" cy="65" r="2" inspiral:hole-name="10" />
      <text x="65.66025403784438" y="66" text-anchor="end">10</text>
			<circle cx="73.85640646055101" cy="68" r="2" inspiral:hole-name="16" />
      <text x="70.85640646055101" y="69" text-anchor="end">16</text>
			<circle cx="79.05255888325765" cy="71.00000000000001" r="2" inspiral:hole-name="22" />
      <text x="76.05255888325765" y="72.00000000000001" text-anchor="end">22</text>
			<circle cx="84.24871130596428" cy="74.00000000000001" r="2" inspiral:hole-name="28" />
      <text x="81.24871130596428" y="75.00000000000001" text-anchor="end">28</text>
			<circle cx="89.4448637286709" cy="77.00000000000001" r="2" inspiral:hole-name="34" />
      <text x="86.4448637286709" y="78.00000000000001" text-anchor="end">34</text>
			<circle cx="94.64101615137753" cy="80.00000000000001" r="2" inspiral:hole-name="40" />
      <text x="91.64101615137753" y="81.00000000000001" text-anchor="end">40</text>
			<circle cx="99.83716857408416" cy="83.00000000000003" r="2" inspiral:hole-name="46" />
      <text x="96.83716857408416" y="84.00000000000003" text-anchor="end">46</text>
			<circle cx="105.03332099679079" cy="86.00000000000003" r="2" inspiral:hole-name="52" />
      <text x="102.03332099679079" y="87.00000000000003" text-anchor="end">52</text>
			<circle cx="69.52627944162883" cy="54.50000000000001" r="2" inspiral:hole-name="11" />
      <text x="66.52627944162883" y="55.50000000000001" text-anchor="end">11</text>
			<circle cx="74.72243186433546" cy="51.500000000000014" r="2" inspiral:hole-name="17" />
      <text x="71.72243186433546" y="52.500000000000014" text-anchor="end">17</text>
			<circle cx="79.9185842870421" cy="48.500000000000014" r="2" inspiral:hole-name="23" />
      <text x="76.9185842870421" y="49.500000000000014" text-anchor="end">23</text>
			<circle cx="85.11473670974874" cy="45.50000000000002" r="2" inspiral:hole-name="29" />
      <text x="82.11473670974874" y="46.50000000000002" text-anchor="end">29</text>
			<circle cx="90.31088913245537" cy="42.50000000000003" r="2" inspiral:hole-name="35" />
      <text x="87.31088913245537" y="43.50000000000003" text-anchor="end">35</text>
			<circle cx="95.507041555162" cy="39.50000000000003" r="2" inspiral:hole-name="41" />
      <text x="92.507041555162" y="40.50000000000003" text-anchor="end">41</text>
			<circle cx="100.70319397786864" cy="36.500000000000036" r="2" inspiral:hole-name="47" />
      <text x="97.70319397786864" y="37.500000000000036" text-anchor="end">47</text>
			<circle cx="105.89934640057527" cy="33.50000000000004" r="2" inspiral:hole-name="53" />
      <text x="102.89934640057527" y="34.50000000000004" text-anchor="end">53</text>
		</mask>
    <path mask="url(#holes)"
          d="M 120 60
             A 60 60 0 1 0 0 60
             A 60 60 0 0 0 120 60
             Z" />
  </g>
</svg>
