<?xml version="1.0"?>
<svg xmlns="http://www.w3.org/2000/svg" xmlns:inspiral="http://nathanfriend.io/inspiral">
  <style>
    text {
      font-family: monospace;
      font-size: 4px;
    }
  </style>
  <g>
    <mask id="holes">
			<rect width="100%" height="100%" fill="white" />
			<circle cx="84" cy="84" r="2" inspiral:hole-name="0" />
      <text x="81" y="85" text-anchor="end">0</text>
			<circle cx="84" cy="78" r="2" inspiral:hole-name="6" />
      <text x="81" y="79" text-anchor="end">6</text>
			<circle cx="84" cy="72" r="2" inspiral:hole-name="12" />
      <text x="81" y="73" text-anchor="end">12</text>
			<circle cx="84" cy="66" r="2" inspiral:hole-name="18" />
      <text x="81" y="67" text-anchor="end">18</text>
			<circle cx="84" cy="60" r="2" inspiral:hole-name="24" />
      <text x="81" y="61" text-anchor="end">24</text>
			<circle cx="84" cy="54" r="2" inspiral:hole-name="30" />
      <text x="81" y="55" text-anchor="end">30</text>
			<circle cx="84" cy="48" r="2" inspiral:hole-name="36" />
      <text x="81" y="49" text-anchor="end">36</text>
			<circle cx="84" cy="42" r="2" inspiral:hole-name="42" />
      <text x="81" y="43" text-anchor="end">42</text>
			<circle cx="84" cy="36" r="2" inspiral:hole-name="48" />
      <text x="81" y="37" text-anchor="end">48</text>
			<circle cx="84" cy="30" r="2" inspiral:hole-name="54" />
      <text x="81" y="31" text-anchor="end">54</text>
			<circle cx="84" cy="24" r="2" inspiral:hole-name="60" />
      <text x="81" y="25" text-anchor="end">60</text>
			<circle cx="84" cy="18" r="2" inspiral:hole-name="66" />
      <text x="81" y="19" text-anchor="end">66</text>
			<circle cx="84" cy="12" r="2" inspiral:hole-name="72" />
      <text x="81" y="13" text-anchor="end">72</text>
			<circle cx="84" cy="6" r="2" inspiral:hole-name="78" />
      <text x="81" y="7" text-anchor="end">78</text>
			<circle cx="77.93782217350893" cy="80.5" r="2" inspiral:hole-name="7" />
      <text x="74.93782217350893" y="81.5" text-anchor="end">7</text>
			<circle cx="72.7416697508023" cy="77.5" r="2" inspiral:hole-name="13" />
      <text x="69.7416697508023" y="78.5" text-anchor="end">13</text>
			<circle cx="67.54551732809567" cy="74.5" r="2" inspiral:hole-name="19" />
      <text x="64.54551732809567" y="75.5" text-anchor="end">19</text>
			<circle cx="62.34936490538904" cy="71.49999999999999" r="2" inspiral:hole-name="25" />
      <text x="59.34936490538904" y="72.49999999999999" text-anchor="end">25</text>
			<circle cx="57.153212482682406" cy="68.49999999999999" r="2" inspiral:hole-name="31" />
      <text x="54.153212482682406" y="69.49999999999999" text-anchor="end">31</text>
			<circle cx="51.957060059975774" cy="65.49999999999999" r="2" inspiral:hole-name="37" />
      <text x="48.957060059975774" y="66.49999999999999" text-anchor="end">37</text>
			<circle cx="46.76090763726914" cy="62.499999999999986" r="2" inspiral:hole-name="43" />
      <text x="43.76090763726914" y="63.499999999999986" text-anchor="end">43</text>
			<circle cx="41.56475521456252" cy="59.499999999999986" r="2" inspiral:hole-name="49" />
      <text x="38.56475521456252" y="60.499999999999986" text-anchor="end">49</text>
			<circle cx="36.368602791855885" cy="56.499999999999986" r="2" inspiral:hole-name="55" />
      <text x="33.368602791855885" y="57.499999999999986" text-anchor="end">55</text>
			<circle cx="31.172450369149253" cy="53.49999999999998" r="2" inspiral:hole-name="61" />
      <text x="28.172450369149253" y="54.49999999999998" text-anchor="end">61</text>
			<circle cx="25.97629794644262" cy="50.49999999999998" r="2" inspiral:hole-name="67" />
      <text x="22.97629794644262" y="51.49999999999998" text-anchor="end">67</text>
			<circle cx="20.78014552373599" cy="47.49999999999998" r="2" inspiral:hole-name="73" />
      <text x="17.78014552373599" y="48.49999999999998" text-anchor="end">73</text>
			<circle cx="77.07179676972449" cy="88" r="2" inspiral:hole-name="8" />
      <text x="74.07179676972449" y="89" text-anchor="end">8</text>
			<circle cx="71.87564434701785" cy="91" r="2" inspiral:hole-name="14" />
      <text x="68.87564434701785" y="92" text-anchor="end">14</text>
			<circle cx="66.67949192431122" cy="94" r="2" inspiral:hole-name="20" />
      <text x="63.67949192431122" y="95" text-anchor="end">20</text>
			<circle cx="61.48333950160459" cy="97" r="2" inspiral:hole-name="26" />
      <text x="58.48333950160459" y="98" text-anchor="end">26</text>
			<circle cx="56.28718707889796" cy="99.99999999999999" r="2" inspiral:hole-name="32" />
      <text x="53.28718707889796" y="100.99999999999999" text-anchor="end">32</text>
			<circle cx="51.091034656191326" cy="102.99999999999999" r="2" inspiral:hole-name="38" />
      <text x="48.091034656191326" y="103.99999999999999" text-anchor="end">38</text>
			<circle cx="45.894882233484694" cy="105.99999999999999" r="2" inspiral:hole-name="44" />
      <text x="42.894882233484694" y="106.99999999999999" text-anchor="end">44</text>
			<circle cx="40.69872981077806" cy="108.99999999999999" r="2" inspiral:hole-name="50" />
      <text x="37.69872981077806" y="109.99999999999999" text-anchor="end">50</text>
			<circle cx="35.50257738807143" cy="111.99999999999999" r="2" inspiral:hole-name="56" />
      <text x="32.50257738807143" y="112.99999999999999" text-anchor="end">56</text>
			<circle cx="30.30642496536479" cy="114.99999999999999" r="2" inspiral:hole-name="62" />
      <text x="27.30642496536479" y="115.99999999999999" text-anchor="end">62</text>
			<circle cx="25.11027254265816" cy="117.99999999999997" r="2" inspiral:hole-name="68" />
      <text x="22.11027254265816" y="118.99999999999997" text-anchor="end">68</text>
			<circle cx="19.914120119951534" cy="120.99999999999997" r="2" inspiral:hole-name="74" />
      <text x="16.914120119951534" y="121.99999999999997" text-anchor="end">74</text>
			<circle cx="84" cy="93" r="2" inspiral:hole-name="9" />
      <text x="81" y="94" text-anchor="end">9</text>
			<circle cx="84" cy="99" r="2" inspiral:hole-name="15" />
      <text x="81" y="100" text-anchor="end">15</text>
			<circle cx="84" cy="105" r="2" inspiral:hole-name="21" />
      <text x="81" y="106" text-anchor="end">21</text>
			<circle cx="84" cy="111" r="2" inspiral:hole-name="27" />
      <text x="81" y="112" text-anchor="end">27</text>
			<circle cx="84" cy="117" r="2" inspiral:hole-name="33" />
      <text x="81" y="118" text-anchor="end">33</text>
			<circle cx="83.99999999999999" cy="123" r="2" inspiral:hole-name="39" />
      <text x="80.99999999999999" y="124" text-anchor="end">39</text>
			<circle cx="83.99999999999999" cy="129" r="2" inspiral:hole-name="45" />
      <text x="80.99999999999999" y="130" text-anchor="end">45</text>
			<circle cx="83.99999999999999" cy="135" r="2" inspiral:hole-name="51" />
      <text x="80.99999999999999" y="136" text-anchor="end">51</text>
			<circle cx="83.99999999999999" cy="141" r="2" inspiral:hole-name="57" />
      <text x="80.99999999999999" y="142" text-anchor="end">57</text>
			<circle cx="83.99999999999999" cy="147" r="2" inspiral:hole-name="63" />
      <text x="80.99999999999999" y="148" text-anchor="end">63</text>
			<circle cx="83.99999999999999" cy="153" r="2" inspiral:hole-name="69" />
      <text x="80.99999999999999" y="154" text-anchor="end">69</text>
			<circle cx="83.99999999999999" cy="159" r="2" inspiral:hole-name="75" />
      <text x="80.99999999999999" y="160" text-anchor="end">75</text>
			<circle cx="92.66025403784438" cy="89" r="2" inspiral:hole-name="10" />
      <text x="89.66025403784438" y="90" text-anchor="end">10</text>
			<circle cx="97.85640646055101" cy="92" r="2" inspiral:hole-name="16" />
      <text x="94.85640646055101" y="93" text-anchor="end">16</text>
			<circle cx="103.05255888325765" cy="95.00000000000001" r="2" inspiral:hole-name="22" />
      <text x="100.05255888325765" y="96.00000000000001" text-anchor="end">22</text>
			<circle cx="108.24871130596428" cy="98.00000000000001" r="2" inspiral:hole-name="28" />
      <text x="105.24871130596428" y="99.00000000000001" text-anchor="end">28</text>
			<circle cx="113.4448637286709" cy="101.00000000000001" r="2" inspiral:hole-name="34" />
      <text x="110.4448637286709" y="102.00000000000001" text-anchor="end">34</text>
			<circle cx="118.64101615137753" cy="104.00000000000001" r="2" inspiral:hole-name="40" />
      <text x="115.64101615137753" y="105.00000000000001" text-anchor="end">40</text>
			<circle cx="123.83716857408416" cy="107.00000000000003" r="2" inspiral:hole-name="46" />
      <text x="120.83716857408416" y="108.00000000000003" text-anchor="end">46</text>
			<circle cx="129.0333209967908" cy="110.00000000000003" r="2" inspiral:hole-name="52" />
      <text x="126.03332099679079" y="111.00000000000003" text-anchor="end">52</text>
			<circle cx="134.22947341949742" cy="113.00000000000003" r="2" inspiral:hole-name="58" />
      <text x="131.22947341949742" y="114.00000000000003" text-anchor="end">58</text>
			<circle cx="139.42562584220406" cy="116.00000000000003" r="2" inspiral:hole-name="64" />
      <text x="136.42562584220406" y="117.00000000000003" text-anchor="end">64</text>
			<circle cx="144.6217782649107" cy="119.00000000000003" r="2" inspiral:hole-name="70" />
      <text x="141.6217782649107" y="120.00000000000003" text-anchor="end">70</text>
			<circle cx="149.81793068761732" cy="122.00000000000003" r="2" inspiral:hole-name="76" />
      <text x="146.81793068761732" y="123.00000000000003" text-anchor="end">76</text>
			<circle cx="93.52627944162883" cy="78.50000000000001" r="2" inspiral:hole-name="11" />
      <text x="90.52627944162883" y="79.50000000000001" text-anchor="end">11</text>
			<circle cx="98.72243186433546" cy="75.50000000000001" r="2" inspiral:hole-name="17" />
      <text x="95.72243186433546" y="76.50000000000001" text-anchor="end">17</text>
			<circle cx="103.9185842870421" cy="72.50000000000001" r="2" inspiral:hole-name="23" />
      <text x="100.9185842870421" y="73.50000000000001" text-anchor="end">23</text>
			<circle cx="109.11473670974874" cy="69.50000000000003" r="2" inspiral:hole-name="29" />
      <text x="106.11473670974874" y="70.50000000000003" text-anchor="end">29</text>
			<circle cx="114.31088913245537" cy="66.50000000000003" r="2" inspiral:hole-name="35" />
      <text x="111.31088913245537" y="67.50000000000003" text-anchor="end">35</text>
			<circle cx="119.507041555162" cy="63.50000000000003" r="2" inspiral:hole-name="41" />
      <text x="116.507041555162" y="64.50000000000003" text-anchor="end">41</text>
			<circle cx="124.70319397786864" cy="60.500000000000036" r="2" inspiral:hole-name="47" />
      <text x="121.70319397786864" y="61.500000000000036" text-anchor="end">47</text>
			<circle cx="129.89934640057527" cy="57.50000000000004" r="2" inspiral:hole-name="53" />
      <text x="126.89934640057527" y="58.50000000000004" text-anchor="end">53</text>
			<circle cx="135.0954988232819" cy="54.50000000000004" r="2" inspiral:hole-name="59" />
      <text x="132.0954988232819" y="55.50000000000004" text-anchor="end">59</text>
			<circle cx="140.29165124598853" cy="51.50000000000005" r="2" inspiral:hole-name="65" />
      <text x="137.29165124598853" y="52.50000000000005" text-anchor="end">65</text>
			<circle cx="145.48780366869516" cy="48.50000000000005" r="2" inspiral:hole-name="71" />
      <text x="142.48780366869516" y="49.50000000000005" text-anchor="end">71</text>
			<circle cx="150.6839560914018" cy="45.50000000000006" r="2" inspiral:hole-name="77" />
      <text x="147.6839560914018" y="46.50000000000006" text-anchor="end">77</text>
		</mask>
    <path mask="url(#holes)"
          d="M 168 84
             A 84 84 0 1 0 0 84
             A 84 84 0 0 0 168 84
             Z" />
  </g>
</svg>
