<?xml version="1.0"?>
<svg xmlns="http://www.w3.org/2000/svg" xmlns:inspiral="http://nathanfriend.io/inspiral">
  <style>
    text {
      font-family: monospace;
      font-size: 4px;
    }
  </style>
  <g>
    <mask id="holes">
			<rect width="100%" height="100%" fill="white" />
			<circle cx="80" cy="80" r="2" inspiral:hole-name="0" />
      <text x="77" y="81" text-anchor="end">0</text>
			<circle cx="80" cy="74" r="2" inspiral:hole-name="6" />
      <text x="77" y="75" text-anchor="end">6</text>
			<circle cx="80" cy="68" r="2" inspiral:hole-name="12" />
      <text x="77" y="69" text-anchor="end">12</text>
			<circle cx="80" cy="62" r="2" inspiral:hole-name="18" />
      <text x="77" y="63" text-anchor="end">18</text>
			<circle cx="80" cy="56" r="2" inspiral:hole-name="24" />
      <text x="77" y="57" text-anchor="end">24</text>
			<circle cx="80" cy="50" r="2" inspiral:hole-name="30" />
      <text x="77" y="51" text-anchor="end">30</text>
			<circle cx="80" cy="44" r="2" inspiral:hole-name="36" />
      <text x="77" y="45" text-anchor="end">36</text>
			<circle cx="80" cy="38" r="2" inspiral:hole-name="42" />
      <text x="77" y="39" text-anchor="end">42</text>
			<circle cx="80" cy="32" r="2" inspiral:hole-name="48" />
      <text x="77" y="33" text-anchor="end">48</text>
			<circle cx="80" cy="26" r="2" inspiral:hole-name="54" />
      <text x="77" y="27" text-anchor="end">54</text>
			<circle cx="80" cy="20" r="2" inspiral:hole-name="60" />
      <text x="77" y="21" text-anchor="end">60</text>
			<circle cx="80" cy="14" r="2" inspiral:hole-name="66" />
      <text x="77" y="15" text-anchor="end">66</text>
			<circle cx="80" cy="8" r="2" inspiral:hole-name="72" />
      <text x="77" y="9" text-anchor="end">72</text>
			<circle cx="73.93782217350893" cy="76.5" r="2" inspiral:hole-name="7" />
      <text x="70.93782217350893" y="77.5" text-anchor="end">7</text>
			<circle cx="68.7416697508023" cy="73.5" r="2" inspiral:hole-name="13" />
      <text x="65.7416697508023" y="74.5" text-anchor="end">13</text>
			<circle cx="63.54551732809567" cy="70.5" r="2" inspiral:hole-name="19" />
      <text x="60.54551732809567" y="71.5" text-anchor="end">19</text>
			<circle cx="58.34936490538904" cy="67.49999999999999" r="2" inspiral:hole-name="25" />
      <text x="55.34936490538904" y="68.49999999999999" text-anchor="end">25</text>
			<circle cx="53.153212482682406" cy="64.49999999999999" r="2" inspiral:hole-name="31" />
      <text x="50.153212482682406" y="65.49999999999999" text-anchor="end">31</text>
			<circle cx="47.957060059975774" cy="61.499999999999986" r="2" inspiral:hole-name="37" />
      <text x="44.957060059975774" y="62.499999999999986" text-anchor="end">37</text>
			<circle cx="42.76090763726914" cy="58.499999999999986" r="2" inspiral:hole-name="43" />
      <text x="39.76090763726914" y="59.499999999999986" text-anchor="end">43</text>
			<circle cx="37.56475521456252" cy="55.499999999999986" r="2" inspiral:hole-name="49" />
      <text x="34.56475521456252" y="56.499999999999986" text-anchor="end">49</text>
			<circle cx="32.368602791855885" cy="52.499999999999986" r="2" inspiral:hole-name="55" />
      <text x="29.368602791855885" y="53.499999999999986" text-anchor="end">55</text>
			<circle cx="27.172450369149253" cy="49.49999999999998" r="2" inspiral:hole-name="61" />
      <text x="24.172450369149253" y="50.49999999999998" text-anchor="end">61</text>
			<circle cx="21.97629794644262" cy="46.49999999999998" r="2" inspiral:hole-name="67" />
      <text x="18.97629794644262" y="47.49999999999998" text-anchor="end">67</text>
			<circle cx="16.78014552373599" cy="43.49999999999998" r="2" inspiral:hole-name="73" />
      <text x="13.780145523735989" y="44.49999999999998" text-anchor="end">73</text>
			<circle cx="73.07179676972449" cy="84" r="2" inspiral:hole-name="8" />
      <text x="70.07179676972449" y="85" text-anchor="end">8</text>
			<circle cx="67.87564434701785" cy="87" r="2" inspiral:hole-name="14" />
      <text x="64.87564434701785" y="88" text-anchor="end">14</text>
			<circle cx="62.67949192431122" cy="90" r="2" inspiral:hole-name="20" />
      <text x="59.67949192431122" y="91" text-anchor="end">20</text>
			<circle cx="57.48333950160459" cy="93" r="2" inspiral:hole-name="26" />
      <text x="54.48333950160459" y="94" text-anchor="end">26</text>
			<circle cx="52.28718707889796" cy="95.99999999999999" r="2" inspiral:hole-name="32" />
      <text x="49.28718707889796" y="96.99999999999999" text-anchor="end">32</text>
			<circle cx="47.091034656191326" cy="98.99999999999999" r="2" inspiral:hole-name="38" />
      <text x="44.091034656191326" y="99.99999999999999" text-anchor="end">38</text>
			<circle cx="41.894882233484694" cy="101.99999999999999" r="2" inspiral:hole-name="44" />
      <text x="38.894882233484694" y="102.99999999999999" text-anchor="end">44</text>
			<circle cx="36.69872981077806" cy="104.99999999999999" r="2" inspiral:hole-name="50" />
      <text x="33.69872981077806" y="105.99999999999999" text-anchor="end">50</text>
			<circle cx="31.50257738807143" cy="107.99999999999999" r="2" inspiral:hole-name="56" />
      <text x="28.50257738807143" y="108.99999999999999" text-anchor="end">56</text>
			<circle cx="26.30642496536479" cy="110.99999999999999" r="2" inspiral:hole-name="62" />
      <text x="23.30642496536479" y="111.99999999999999" text-anchor="end">62</text>
			<circle cx="21.11027254265816" cy="113.99999999999997" r="2" inspiral:hole-name="68" />
      <text x="18.11027254265816" y="114.99999999999997" text-anchor="end">68</text>
			<circle cx="15.914120119951534" cy="116.99999999999997" r="2" inspiral:hole-name="74" />
      <text x="12.914120119951534" y="117.99999999999997" text-anchor="end">74</text>
			<circle cx="80" cy="89" r="2" inspiral:hole-name="9" />
      <text x="77" y="90" text-anchor="end">9</text>
			<circle cx="80" cy="95" r="2" inspiral:hole-name="15" />
      <text x="77" y="96" text-anchor="end">15</text>
			<circle cx="80" cy="101" r="2" inspiral:hole-name="21" />
      <text x="77" y="102" text-anchor="end">21</text>
			<circle cx="80" cy="107" r="2" inspiral:hole-name="27" />
      <text x="77" y="108" text-anchor="end">27</text>
			<circle cx="80" cy="113" r="2" inspiral:hole-name="33" />
      <text x="77" y="114" text-anchor="end">33</text>
			<circle cx="79.99999999999999" cy="119" r="2" inspiral:hole-name="39" />
      <text x="76.99999999999999" y="120" text-anchor="end">39</text>
			<circle cx="79.99999999999999" cy="125" r="2" inspiral:hole-name="45" />
      <text x="76.99999999999999" y="126" text-anchor="end">45</text>
			<circle cx="79.99999999999999" cy="131" r="2" inspiral:hole-name="51" />
      <text x="76.99999999999999" y="132" text-anchor="end">51</text>
			<circle cx="79.99999999999999" cy="137" r="2" inspiral:hole-name="57" />
      <text x="76.99999999999999" y="138" text-anchor="end">57</text>
			<circle cx="79.99999999999999" cy="143" r="2" inspiral:hole-name="63" />
      <text x="76.99999999999999" y="144" text-anchor="end">63</text>
			<circle cx="79.99999999999999" cy="149" r="2" inspiral:hole-name="69" />
      <text x="76.99999999999999" y="150" text-anchor="end">69</text>
			<circle cx="88.66025403784438" cy="85" r="2" inspiral:hole-name="10" />
      <text x="85.66025403784438" y="86" text-anchor="end">10</text>
			<circle cx="93.85640646055101" cy="88" r="2" inspiral:hole-name="16" />
      <text x="90.85640646055101" y="89" text-anchor="end">16</text>
			<circle cx="99.05255888325765" cy="91.00000000000001" r="2" inspiral:hole-name="22" />
      <text x="96.05255888325765" y="92.00000000000001" text-anchor="end">22</text>
			<circle cx="104.24871130596428" cy="94.00000000000001" r="2" inspiral:hole-name="28" />
      <text x="101.24871130596428" y="95.00000000000001" text-anchor="end">28</text>
			<circle cx="109.4448637286709" cy="97.00000000000001" r="2" inspiral:hole-name="34" />
      <text x="106.4448637286709" y="98.00000000000001" text-anchor="end">34</text>
			<circle cx="114.64101615137753" cy="100.00000000000001" r="2" inspiral:hole-name="40" />
      <text x="111.64101615137753" y="101.00000000000001" text-anchor="end">40</text>
			<circle cx="119.83716857408416" cy="103.00000000000003" r="2" inspiral:hole-name="46" />
      <text x="116.83716857408416" y="104.00000000000003" text-anchor="end">46</text>
			<circle cx="125.03332099679079" cy="106.00000000000003" r="2" inspiral:hole-name="52" />
      <text x="122.03332099679079" y="107.00000000000003" text-anchor="end">52</text>
			<circle cx="130.22947341949742" cy="109.00000000000003" r="2" inspiral:hole-name="58" />
      <text x="127.22947341949742" y="110.00000000000003" text-anchor="end">58</text>
			<circle cx="135.42562584220406" cy="112.00000000000003" r="2" inspiral:hole-name="64" />
      <text x="132.42562584220406" y="113.00000000000003" text-anchor="end">64</text>
			<circle cx="140.6217782649107" cy="115.00000000000003" r="2" inspiral:hole-name="70" />
      <text x="137.6217782649107" y="116.00000000000003" text-anchor="end">70</text>
			<circle cx="89.52627944162883" cy="74.50000000000001" r="2" inspiral:hole-name="11" />
      <text x="86.52627944162883" y="75.50000000000001" text-anchor="end">11</text>
			<circle cx="94.72243186433546" cy="71.50000000000001" r="2" inspiral:hole-name="17" />
      <text x="91.72243186433546" y="72.50000000000001" text-anchor="end">17</text>
			<circle cx="99.9185842870421" cy="68.50000000000001" r="2" inspiral:hole-name="23" />
      <text x="96.9185842870421" y="69.50000000000001" text-anchor="end">23</text>
			<circle cx="105.11473670974874" cy="65.50000000000003" r="2" inspiral:hole-name="29" />
      <text x="102.11473670974874" y="66.50000000000003" text-anchor="end">29</text>
			<circle cx="110.31088913245537" cy="62.50000000000003" r="2" inspiral:hole-name="35" />
      <text x="107.31088913245537" y="63.50000000000003" text-anchor="end">35</text>
			<circle cx="115.507041555162" cy="59.50000000000003" r="2" inspiral:hole-name="41" />
      <text x="112.507041555162" y="60.50000000000003" text-anchor="end">41</text>
			<circle cx="120.70319397786864" cy="56.500000000000036" r="2" inspiral:hole-name="47" />
      <text x="117.70319397786864" y="57.500000000000036" text-anchor="end">47</text>
			<circle cx="125.89934640057527" cy="53.50000000000004" r="2" inspiral:hole-name="53" />
      <text x="122.89934640057527" y="54.50000000000004" text-anchor="end">53</text>
			<circle cx="131.0954988232819" cy="50.50000000000004" r="2" inspiral:hole-name="59" />
      <text x="128.0954988232819" y="51.50000000000004" text-anchor="end">59</text>
			<circle cx="136.29165124598853" cy="47.50000000000005" r="2" inspiral:hole-name="65" />
      <text x="133.29165124598853" y="48.50000000000005" text-anchor="end">65</text>
			<circle cx="141.48780366869516" cy="44.50000000000005" r="2" inspiral:hole-name="71" />
      <text x="138.48780366869516" y="45.50000000000005" text-anchor="end">71</text>
		</mask>
    <path mask="url(#holes)"
          d="M 160 80
             A 80 80 0 1 0 0 80
             A 80 80 0 0 0 160 80
             Z" />
  </g>
</svg>
