<?xml version="1.0"?>
<svg xmlns="http://www.w3.org/2000/svg" xmlns:inspiral="http://nathanfriend.io/inspiral">
  <style>
    text {
      font-family: monospace;
      font-size: 4px;
    }
  </style>
  <g>
    <mask id="holes">
			<rect width="100%" height="100%" fill="white" />
			<circle cx="75" cy="75" r="2" inspiral:hole-name="0" />
      <text x="72" y="76" text-anchor="end">0</text>
			<circle cx="75" cy="69" r="2" inspiral:hole-name="6" />
      <text x="72" y="70" text-anchor="end">6</text>
			<circle cx="75" cy="63" r="2" inspiral:hole-name="12" />
      <text x="72" y="64" text-anchor="end">12</text>
			<circle cx="75" cy="57" r="2" inspiral:hole-name="18" />
      <text x="72" y="58" text-anchor="end">18</text>
			<circle cx="75" cy="51" r="2" inspiral:hole-name="24" />
      <text x="72" y="52" text-anchor="end">24</text>
			<circle cx="75" cy="45" r="2" inspiral:hole-name="30" />
      <text x="72" y="46" text-anchor="end">30</text>
			<circle cx="75" cy="39" r="2" inspiral:hole-name="36" />
      <text x="72" y="40" text-anchor="end">36</text>
			<circle cx="75" cy="33" r="2" inspiral:hole-name="42" />
      <text x="72" y="34" text-anchor="end">42</text>
			<circle cx="75" cy="27" r="2" inspiral:hole-name="48" />
      <text x="72" y="28" text-anchor="end">48</text>
			<circle cx="75" cy="21" r="2" inspiral:hole-name="54" />
      <text x="72" y="22" text-anchor="end">54</text>
			<circle cx="75" cy="15" r="2" inspiral:hole-name="60" />
      <text x="72" y="16" text-anchor="end">60</text>
			<circle cx="75" cy="9" r="2" inspiral:hole-name="66" />
      <text x="72" y="10" text-anchor="end">66</text>
			<circle cx="68.93782217350893" cy="71.5" r="2" inspiral:hole-name="7" />
      <text x="65.93782217350893" y="72.5" text-anchor="end">7</text>
			<circle cx="63.7416697508023" cy="68.5" r="2" inspiral:hole-name="13" />
      <text x="60.7416697508023" y="69.5" text-anchor="end">13</text>
			<circle cx="58.54551732809567" cy="65.5" r="2" inspiral:hole-name="19" />
      <text x="55.54551732809567" y="66.5" text-anchor="end">19</text>
			<circle cx="53.34936490538904" cy="62.49999999999999" r="2" inspiral:hole-name="25" />
      <text x="50.34936490538904" y="63.49999999999999" text-anchor="end">25</text>
			<circle cx="48.153212482682406" cy="59.499999999999986" r="2" inspiral:hole-name="31" />
      <text x="45.153212482682406" y="60.499999999999986" text-anchor="end">31</text>
			<circle cx="42.957060059975774" cy="56.499999999999986" r="2" inspiral:hole-name="37" />
      <text x="39.957060059975774" y="57.499999999999986" text-anchor="end">37</text>
			<circle cx="37.76090763726914" cy="53.499999999999986" r="2" inspiral:hole-name="43" />
      <text x="34.76090763726914" y="54.499999999999986" text-anchor="end">43</text>
			<circle cx="32.56475521456252" cy="50.499999999999986" r="2" inspiral:hole-name="49" />
      <text x="29.564755214562517" y="51.499999999999986" text-anchor="end">49</text>
			<circle cx="27.368602791855885" cy="47.499999999999986" r="2" inspiral:hole-name="55" />
      <text x="24.368602791855885" y="48.499999999999986" text-anchor="end">55</text>
			<circle cx="22.172450369149253" cy="44.49999999999998" r="2" inspiral:hole-name="61" />
      <text x="19.172450369149253" y="45.49999999999998" text-anchor="end">61</text>
			<circle cx="16.97629794644262" cy="41.49999999999998" r="2" inspiral:hole-name="67" />
      <text x="13.976297946442621" y="42.49999999999998" text-anchor="end">67</text>
			<circle cx="68.07179676972449" cy="79" r="2" inspiral:hole-name="8" />
      <text x="65.07179676972449" y="80" text-anchor="end">8</text>
			<circle cx="62.875644347017854" cy="82" r="2" inspiral:hole-name="14" />
      <text x="59.875644347017854" y="83" text-anchor="end">14</text>
			<circle cx="57.67949192431122" cy="85" r="2" inspiral:hole-name="20" />
      <text x="54.67949192431122" y="86" text-anchor="end">20</text>
			<circle cx="52.48333950160459" cy="88" r="2" inspiral:hole-name="26" />
      <text x="49.48333950160459" y="89" text-anchor="end">26</text>
			<circle cx="47.28718707889796" cy="90.99999999999999" r="2" inspiral:hole-name="32" />
      <text x="44.28718707889796" y="91.99999999999999" text-anchor="end">32</text>
			<circle cx="42.091034656191326" cy="93.99999999999999" r="2" inspiral:hole-name="38" />
      <text x="39.091034656191326" y="94.99999999999999" text-anchor="end">38</text>
			<circle cx="36.894882233484694" cy="96.99999999999999" r="2" inspiral:hole-name="44" />
      <text x="33.894882233484694" y="97.99999999999999" text-anchor="end">44</text>
			<circle cx="31.69872981077806" cy="99.99999999999999" r="2" inspiral:hole-name="50" />
      <text x="28.69872981077806" y="100.99999999999999" text-anchor="end">50</text>
			<circle cx="26.50257738807143" cy="102.99999999999999" r="2" inspiral:hole-name="56" />
      <text x="23.50257738807143" y="103.99999999999999" text-anchor="end">56</text>
			<circle cx="21.30642496536479" cy="105.99999999999999" r="2" inspiral:hole-name="62" />
      <text x="18.30642496536479" y="106.99999999999999" text-anchor="end">62</text>
			<circle cx="16.11027254265816" cy="108.99999999999997" r="2" inspiral:hole-name="68" />
      <text x="13.110272542658159" y="109.99999999999997" text-anchor="end">68</text>
			<circle cx="75" cy="84" r="2" inspiral:hole-name="9" />
      <text x="72" y="85" text-anchor="end">9</text>
			<circle cx="75" cy="90" r="2" inspiral:hole-name="15" />
      <text x="72" y="91" text-anchor="end">15</text>
			<circle cx="75" cy="96" r="2" inspiral:hole-name="21" />
      <text x="72" y="97" text-anchor="end">21</text>
			<circle cx="75" cy="102" r="2" inspiral:hole-name="27" />
      <text x="72" y="103" text-anchor="end">27</text>
			<circle cx="75" cy="108" r="2" inspiral:hole-name="33" />
      <text x="72" y="109" text-anchor="end">33</text>
			<circle cx="74.99999999999999" cy="114" r="2" inspiral:hole-name="39" />
      <text x="71.99999999999999" y="115" text-anchor="end">39</text>
			<circle cx="74.99999999999999" cy="120" r="2" inspiral:hole-name="45" />
      <text x="71.99999999999999" y="121" text-anchor="end">45</text>
			<circle cx="74.99999999999999" cy="126" r="2" inspiral:hole-name="51" />
      <text x="71.99999999999999" y="127" text-anchor="end">51</text>
			<circle cx="74.99999999999999" cy="132" r="2" inspiral:hole-name="57" />
      <text x="71.99999999999999" y="133" text-anchor="end">57</text>
			<circle cx="74.99999999999999" cy="138" r="2" inspiral:hole-name="63" />
      <text x="71.99999999999999" y="139" text-anchor="end">63</text>
			<circle cx="74.99999999999999" cy="144" r="2" inspiral:hole-name="69" />
      <text x="71.99999999999999" y="145" text-anchor="end">69</text>
			<circle cx="83.66025403784438" cy="80" r="2" inspiral:hole-name="10" />
      <text x="80.66025403784438" y="81" text-anchor="end">10</text>
			<circle cx="88.85640646055101" cy="83" r="2" inspiral:hole-name="16" />
      <text x="85.85640646055101" y="84" text-anchor="end">16</text>
			<circle cx="94.05255888325765" cy="86.00000000000001" r="2" inspiral:hole-name="22" />
      <text x="91.05255888325765" y="87.00000000000001" text-anchor="end">22</text>
			<circle cx="99.24871130596428" cy="89.00000000000001" r="2" inspiral:hole-name="28" />
      <text x="96.24871130596428" y="90.00000000000001" text-anchor="end">28</text>
			<circle cx="104.4448637286709" cy="92.00000000000001" r="2" inspiral:hole-name="34" />
      <text x="101.4448637286709" y="93.00000000000001" text-anchor="end">34</text>
			<circle cx="109.64101615137753" cy="95.00000000000001" r="2" inspiral:hole-name="40" />
      <text x="106.64101615137753" y="96.00000000000001" text-anchor="end">40</text>
			<circle cx="114.83716857408416" cy="98.00000000000003" r="2" inspiral:hole-name="46" />
      <text x="111.83716857408416" y="99.00000000000003" text-anchor="end">46</text>
			<circle cx="120.03332099679079" cy="101.00000000000003" r="2" inspiral:hole-name="52" />
      <text x="117.03332099679079" y="102.00000000000003" text-anchor="end">52</text>
			<circle cx="125.22947341949742" cy="104.00000000000003" r="2" inspiral:hole-name="58" />
      <text x="122.22947341949742" y="105.00000000000003" text-anchor="end">58</text>
			<circle cx="130.42562584220406" cy="107.00000000000003" r="2" inspiral:hole-name="64" />
      <text x="127.42562584220406" y="108.00000000000003" text-anchor="end">64</text>
			<circle cx="84.52627944162883" cy="69.50000000000001" r="2" inspiral:hole-name="11" />
      <text x="81.52627944162883" y="70.50000000000001" text-anchor="end">11</text>
			<circle cx="89.72243186433546" cy="66.50000000000001" r="2" inspiral:hole-name="17" />
      <text x="86.72243186433546" y="67.50000000000001" text-anchor="end">17</text>
			<circle cx="94.9185842870421" cy="63.500000000000014" r="2" inspiral:hole-name="23" />
      <text x="91.9185842870421" y="64.50000000000001" text-anchor="end">23</text>
			<circle cx="100.11473670974874" cy="60.50000000000002" r="2" inspiral:hole-name="29" />
      <text x="97.11473670974874" y="61.50000000000002" text-anchor="end">29</text>
			<circle cx="105.31088913245537" cy="57.50000000000003" r="2" inspiral:hole-name="35" />
      <text x="102.31088913245537" y="58.50000000000003" text-anchor="end">35</text>
			<circle cx="110.507041555162" cy="54.50000000000003" r="2" inspiral:hole-name="41" />
      <text x="107.507041555162" y="55.50000000000003" text-anchor="end">41</text>
			<circle cx="115.70319397786864" cy="51.500000000000036" r="2" inspiral:hole-name="47" />
      <text x="112.70319397786864" y="52.500000000000036" text-anchor="end">47</text>
			<circle cx="120.89934640057527" cy="48.50000000000004" r="2" inspiral:hole-name="53" />
      <text x="117.89934640057527" y="49.50000000000004" text-anchor="end">53</text>
			<circle cx="126.0954988232819" cy="45.50000000000004" r="2" inspiral:hole-name="59" />
      <text x="123.0954988232819" y="46.50000000000004" text-anchor="end">59</text>
			<circle cx="131.29165124598853" cy="42.50000000000005" r="2" inspiral:hole-name="65" />
      <text x="128.29165124598853" y="43.50000000000005" text-anchor="end">65</text>
		</mask>
    <path mask="url(#holes)"
          d="M 150 75
             A 75 75 0 1 0 0 75
             A 75 75 0 0 0 150 75
             Z" />
  </g>
</svg>
