<?xml version="1.0"?>
<svg xmlns="http://www.w3.org/2000/svg" xmlns:inspiral="http://nathanfriend.io/inspiral">
  <style>
    text {
      font-family: monospace;
      font-size: 4px;
    }
  </style>
  <g>
    <mask id="holes">
			<rect width="100%" height="100%" fill="white" />
			<circle cx="45" cy="45" r="2" inspiral:hole-name="0" />
      <text x="42" y="46" text-anchor="end">0</text>
			<circle cx="45" cy="39" r="2" inspiral:hole-name="6" />
      <text x="42" y="40" text-anchor="end">6</text>
			<circle cx="45" cy="33" r="2" inspiral:hole-name="12" />
      <text x="42" y="34" text-anchor="end">12</text>
			<circle cx="45" cy="27" r="2" inspiral:hole-name="18" />
      <text x="42" y="28" text-anchor="end">18</text>
			<circle cx="45" cy="21" r="2" inspiral:hole-name="24" />
      <text x="42" y="22" text-anchor="end">24</text>
			<circle cx="45" cy="15" r="2" inspiral:hole-name="30" />
      <text x="42" y="16" text-anchor="end">30</text>
			<circle cx="45" cy="9" r="2" inspiral:hole-name="36" />
      <text x="42" y="10" text-anchor="end">36</text>
			<circle cx="38.937822173508934" cy="41.5" r="2" inspiral:hole-name="7" />
      <text x="35.937822173508934" y="42.5" text-anchor="end">7</text>
			<circle cx="33.7416697508023" cy="38.49999999999999" r="2" inspiral:hole-name="13" />
      <text x="30.741669750802302" y="39.49999999999999" text-anchor="end">13</text>
			<circle cx="28.54551732809567" cy="35.49999999999999" r="2" inspiral:hole-name="19" />
      <text x="25.54551732809567" y="36.49999999999999" text-anchor="end">19</text>
			<circle cx="23.349364905389038" cy="32.49999999999999" r="2" inspiral:hole-name="25" />
      <text x="20.349364905389038" y="33.49999999999999" text-anchor="end">25</text>
			<circle cx="18.153212482682406" cy="29.49999999999999" r="2" inspiral:hole-name="31" />
      <text x="15.153212482682406" y="30.49999999999999" text-anchor="end">31</text>
			<circle cx="12.957060059975774" cy="26.49999999999999" r="2" inspiral:hole-name="37" />
      <text x="9.957060059975774" y="27.49999999999999" text-anchor="end">37</text>
			<circle cx="38.071796769724486" cy="49" r="2" inspiral:hole-name="8" />
      <text x="35.071796769724486" y="50" text-anchor="end">8</text>
			<circle cx="32.875644347017854" cy="52" r="2" inspiral:hole-name="14" />
      <text x="29.875644347017854" y="53" text-anchor="end">14</text>
			<circle cx="27.679491924311222" cy="54.99999999999999" r="2" inspiral:hole-name="20" />
      <text x="24.679491924311222" y="55.99999999999999" text-anchor="end">20</text>
			<circle cx="22.48333950160459" cy="57.99999999999999" r="2" inspiral:hole-name="26" />
      <text x="19.48333950160459" y="58.99999999999999" text-anchor="end">26</text>
			<circle cx="17.287187078897958" cy="60.99999999999999" r="2" inspiral:hole-name="32" />
      <text x="14.287187078897958" y="61.99999999999999" text-anchor="end">32</text>
			<circle cx="12.091034656191326" cy="63.999999999999986" r="2" inspiral:hole-name="38" />
      <text x="9.091034656191326" y="64.99999999999999" text-anchor="end">38</text>
			<circle cx="45" cy="54" r="2" inspiral:hole-name="9" />
      <text x="42" y="55" text-anchor="end">9</text>
			<circle cx="45" cy="60" r="2" inspiral:hole-name="15" />
      <text x="42" y="61" text-anchor="end">15</text>
			<circle cx="44.99999999999999" cy="66" r="2" inspiral:hole-name="21" />
      <text x="41.99999999999999" y="67" text-anchor="end">21</text>
			<circle cx="44.99999999999999" cy="72" r="2" inspiral:hole-name="27" />
      <text x="41.99999999999999" y="73" text-anchor="end">27</text>
			<circle cx="44.99999999999999" cy="78" r="2" inspiral:hole-name="33" />
      <text x="41.99999999999999" y="79" text-anchor="end">33</text>
			<circle cx="44.99999999999999" cy="84" r="2" inspiral:hole-name="39" />
      <text x="41.99999999999999" y="85" text-anchor="end">39</text>
			<circle cx="53.66025403784438" cy="50.00000000000001" r="2" inspiral:hole-name="10" />
      <text x="50.66025403784438" y="51.00000000000001" text-anchor="end">10</text>
			<circle cx="58.856406460551014" cy="53.00000000000001" r="2" inspiral:hole-name="16" />
      <text x="55.856406460551014" y="54.00000000000001" text-anchor="end">16</text>
			<circle cx="64.05255888325765" cy="56.000000000000014" r="2" inspiral:hole-name="22" />
      <text x="61.052558883257646" y="57.000000000000014" text-anchor="end">22</text>
			<circle cx="69.24871130596428" cy="59.000000000000014" r="2" inspiral:hole-name="28" />
      <text x="66.24871130596428" y="60.000000000000014" text-anchor="end">28</text>
			<circle cx="74.4448637286709" cy="62.000000000000014" r="2" inspiral:hole-name="34" />
      <text x="71.4448637286709" y="63.000000000000014" text-anchor="end">34</text>
			<circle cx="54.52627944162883" cy="39.50000000000001" r="2" inspiral:hole-name="11" />
      <text x="51.52627944162883" y="40.50000000000001" text-anchor="end">11</text>
			<circle cx="59.72243186433546" cy="36.500000000000014" r="2" inspiral:hole-name="17" />
      <text x="56.72243186433546" y="37.500000000000014" text-anchor="end">17</text>
			<circle cx="64.9185842870421" cy="33.500000000000014" r="2" inspiral:hole-name="23" />
      <text x="61.918584287042094" y="34.500000000000014" text-anchor="end">23</text>
			<circle cx="70.11473670974874" cy="30.50000000000002" r="2" inspiral:hole-name="29" />
      <text x="67.11473670974874" y="31.50000000000002" text-anchor="end">29</text>
			<circle cx="75.31088913245537" cy="27.500000000000025" r="2" inspiral:hole-name="35" />
      <text x="72.31088913245537" y="28.500000000000025" text-anchor="end">35</text>
		</mask>
    <path mask="url(#holes)"
          d="M 90 45
             A 45 45 0 1 0 0 45
             A 45 45 0 0 0 90 45
             Z" />
  </g>
</svg>
