<?xml version="1.0"?>
<svg xmlns="http://www.w3.org/2000/svg" xmlns:inspiral="http://nathanfriend.io/inspiral">
  <style>
    text {
      font-family: monospace;
      font-size: 4px;
    }
  </style>
  <g>
    <mask id="holes">
			<rect width="100%" height="100%" fill="white" />
			<circle cx="30" cy="30" r="2" inspiral:hole-name="0" />
      <text x="27" y="31" text-anchor="end">0</text>
			<circle cx="30" cy="24" r="2" inspiral:hole-name="6" />
      <text x="27" y="25" text-anchor="end">6</text>
			<circle cx="30" cy="18" r="2" inspiral:hole-name="12" />
      <text x="27" y="19" text-anchor="end">12</text>
			<circle cx="30" cy="12" r="2" inspiral:hole-name="18" />
      <text x="27" y="13" text-anchor="end">18</text>
			<circle cx="30" cy="6" r="2" inspiral:hole-name="24" />
      <text x="27" y="7" text-anchor="end">24</text>
			<circle cx="23.93782217350893" cy="26.499999999999996" r="2" inspiral:hole-name="7" />
      <text x="20.93782217350893" y="27.499999999999996" text-anchor="end">7</text>
			<circle cx="18.741669750802302" cy="23.499999999999996" r="2" inspiral:hole-name="13" />
      <text x="15.741669750802302" y="24.499999999999996" text-anchor="end">13</text>
			<circle cx="13.54551732809567" cy="20.499999999999993" r="2" inspiral:hole-name="19" />
      <text x="10.54551732809567" y="21.499999999999993" text-anchor="end">19</text>
			<circle cx="23.07179676972449" cy="34" r="2" inspiral:hole-name="8" />
      <text x="20.07179676972449" y="35" text-anchor="end">8</text>
			<circle cx="17.875644347017857" cy="37" r="2" inspiral:hole-name="14" />
      <text x="14.875644347017857" y="38" text-anchor="end">14</text>
			<circle cx="12.679491924311222" cy="39.99999999999999" r="2" inspiral:hole-name="20" />
      <text x="9.679491924311222" y="40.99999999999999" text-anchor="end">20</text>
			<circle cx="30" cy="39" r="2" inspiral:hole-name="9" />
      <text x="27" y="40" text-anchor="end">9</text>
			<circle cx="29.999999999999996" cy="45" r="2" inspiral:hole-name="15" />
      <text x="26.999999999999996" y="46" text-anchor="end">15</text>
			<circle cx="29.999999999999996" cy="51" r="2" inspiral:hole-name="21" />
      <text x="26.999999999999996" y="52" text-anchor="end">21</text>
			<circle cx="38.66025403784438" cy="35.00000000000001" r="2" inspiral:hole-name="10" />
      <text x="35.66025403784438" y="36.00000000000001" text-anchor="end">10</text>
			<circle cx="43.856406460551014" cy="38.00000000000001" r="2" inspiral:hole-name="16" />
      <text x="40.856406460551014" y="39.00000000000001" text-anchor="end">16</text>
			<circle cx="49.052558883257646" cy="41.000000000000014" r="2" inspiral:hole-name="22" />
      <text x="46.052558883257646" y="42.000000000000014" text-anchor="end">22</text>
			<circle cx="39.52627944162883" cy="24.500000000000007" r="2" inspiral:hole-name="11" />
      <text x="36.52627944162883" y="25.500000000000007" text-anchor="end">11</text>
			<circle cx="44.72243186433546" cy="21.500000000000014" r="2" inspiral:hole-name="17" />
      <text x="41.72243186433546" y="22.500000000000014" text-anchor="end">17</text>
			<circle cx="49.918584287042094" cy="18.500000000000014" r="2" inspiral:hole-name="23" />
      <text x="46.918584287042094" y="19.500000000000014" text-anchor="end">23</text>
		</mask>
    <path mask="url(#holes)"
          d="M 60 30
             A 30 30 0 1 0 0 30
             A 30 30 0 0 0 60 30
             Z" />
  </g>
</svg>
