<?xml version="1.0"?>
<svg xmlns="http://www.w3.org/2000/svg" xmlns:inspiral="http://nathanfriend.io/inspiral">
  <style>
    text {
      font-family: monospace;
      font-size: 4px;
    }
  </style>
  <g>
    <mask id="holes">
			<rect width="100%" height="100%" fill="white" />
			<circle cx="52" cy="52" r="2" inspiral:hole-name="0" />
      <text x="49" y="53" text-anchor="end">0</text>
			<circle cx="52" cy="46" r="2" inspiral:hole-name="6" />
      <text x="49" y="47" text-anchor="end">6</text>
			<circle cx="52" cy="40" r="2" inspiral:hole-name="12" />
      <text x="49" y="41" text-anchor="end">12</text>
			<circle cx="52" cy="34" r="2" inspiral:hole-name="18" />
      <text x="49" y="35" text-anchor="end">18</text>
			<circle cx="52" cy="28" r="2" inspiral:hole-name="24" />
      <text x="49" y="29" text-anchor="end">24</text>
			<circle cx="52" cy="22" r="2" inspiral:hole-name="30" />
      <text x="49" y="23" text-anchor="end">30</text>
			<circle cx="52" cy="16" r="2" inspiral:hole-name="36" />
      <text x="49" y="17" text-anchor="end">36</text>
			<circle cx="52" cy="10" r="2" inspiral:hole-name="42" />
      <text x="49" y="11" text-anchor="end">42</text>
			<circle cx="45.937822173508934" cy="48.5" r="2" inspiral:hole-name="7" />
      <text x="42.937822173508934" y="49.5" text-anchor="end">7</text>
			<circle cx="40.7416697508023" cy="45.49999999999999" r="2" inspiral:hole-name="13" />
      <text x="37.7416697508023" y="46.49999999999999" text-anchor="end">13</text>
			<circle cx="35.54551732809567" cy="42.49999999999999" r="2" inspiral:hole-name="19" />
      <text x="32.54551732809567" y="43.49999999999999" text-anchor="end">19</text>
			<circle cx="30.349364905389038" cy="39.49999999999999" r="2" inspiral:hole-name="25" />
      <text x="27.349364905389038" y="40.49999999999999" text-anchor="end">25</text>
			<circle cx="25.153212482682406" cy="36.499999999999986" r="2" inspiral:hole-name="31" />
      <text x="22.153212482682406" y="37.499999999999986" text-anchor="end">31</text>
			<circle cx="19.957060059975774" cy="33.499999999999986" r="2" inspiral:hole-name="37" />
      <text x="16.957060059975774" y="34.499999999999986" text-anchor="end">37</text>
			<circle cx="14.760907637269142" cy="30.499999999999986" r="2" inspiral:hole-name="43" />
      <text x="11.760907637269142" y="31.499999999999986" text-anchor="end">43</text>
			<circle cx="45.071796769724486" cy="56" r="2" inspiral:hole-name="8" />
      <text x="42.071796769724486" y="57" text-anchor="end">8</text>
			<circle cx="39.875644347017854" cy="59" r="2" inspiral:hole-name="14" />
      <text x="36.875644347017854" y="60" text-anchor="end">14</text>
			<circle cx="34.67949192431122" cy="61.99999999999999" r="2" inspiral:hole-name="20" />
      <text x="31.679491924311222" y="62.99999999999999" text-anchor="end">20</text>
			<circle cx="29.48333950160459" cy="65" r="2" inspiral:hole-name="26" />
      <text x="26.48333950160459" y="66" text-anchor="end">26</text>
			<circle cx="24.287187078897958" cy="67.99999999999999" r="2" inspiral:hole-name="32" />
      <text x="21.287187078897958" y="68.99999999999999" text-anchor="end">32</text>
			<circle cx="19.091034656191326" cy="70.99999999999999" r="2" inspiral:hole-name="38" />
      <text x="16.091034656191326" y="71.99999999999999" text-anchor="end">38</text>
			<circle cx="13.894882233484694" cy="73.99999999999999" r="2" inspiral:hole-name="44" />
      <text x="10.894882233484694" y="74.99999999999999" text-anchor="end">44</text>
			<circle cx="52" cy="61" r="2" inspiral:hole-name="9" />
      <text x="49" y="62" text-anchor="end">9</text>
			<circle cx="52" cy="67" r="2" inspiral:hole-name="15" />
      <text x="49" y="68" text-anchor="end">15</text>
			<circle cx="51.99999999999999" cy="73" r="2" inspiral:hole-name="21" />
      <text x="48.99999999999999" y="74" text-anchor="end">21</text>
			<circle cx="51.99999999999999" cy="79" r="2" inspiral:hole-name="27" />
      <text x="48.99999999999999" y="80" text-anchor="end">27</text>
			<circle cx="51.99999999999999" cy="85" r="2" inspiral:hole-name="33" />
      <text x="48.99999999999999" y="86" text-anchor="end">33</text>
			<circle cx="51.99999999999999" cy="91" r="2" inspiral:hole-name="39" />
      <text x="48.99999999999999" y="92" text-anchor="end">39</text>
			<circle cx="51.99999999999999" cy="97" r="2" inspiral:hole-name="45" />
      <text x="48.99999999999999" y="98" text-anchor="end">45</text>
			<circle cx="60.66025403784438" cy="57.00000000000001" r="2" inspiral:hole-name="10" />
      <text x="57.66025403784438" y="58.00000000000001" text-anchor="end">10</text>
			<circle cx="65.85640646055101" cy="60.00000000000001" r="2" inspiral:hole-name="16" />
      <text x="62.856406460551014" y="61.00000000000001" text-anchor="end">16</text>
			<circle cx="71.05255888325765" cy="63.000000000000014" r="2" inspiral:hole-name="22" />
      <text x="68.05255888325765" y="64.00000000000001" text-anchor="end">22</text>
			<circle cx="76.24871130596428" cy="66.00000000000001" r="2" inspiral:hole-name="28" />
      <text x="73.24871130596428" y="67.00000000000001" text-anchor="end">28</text>
			<circle cx="81.4448637286709" cy="69.00000000000001" r="2" inspiral:hole-name="34" />
      <text x="78.4448637286709" y="70.00000000000001" text-anchor="end">34</text>
			<circle cx="86.64101615137753" cy="72.00000000000001" r="2" inspiral:hole-name="40" />
      <text x="83.64101615137753" y="73.00000000000001" text-anchor="end">40</text>
			<circle cx="91.83716857408416" cy="75.00000000000003" r="2" inspiral:hole-name="46" />
      <text x="88.83716857408416" y="76.00000000000003" text-anchor="end">46</text>
			<circle cx="61.52627944162883" cy="46.50000000000001" r="2" inspiral:hole-name="11" />
      <text x="58.52627944162883" y="47.50000000000001" text-anchor="end">11</text>
			<circle cx="66.72243186433546" cy="43.500000000000014" r="2" inspiral:hole-name="17" />
      <text x="63.72243186433546" y="44.500000000000014" text-anchor="end">17</text>
			<circle cx="71.9185842870421" cy="40.500000000000014" r="2" inspiral:hole-name="23" />
      <text x="68.9185842870421" y="41.500000000000014" text-anchor="end">23</text>
			<circle cx="77.11473670974874" cy="37.50000000000002" r="2" inspiral:hole-name="29" />
      <text x="74.11473670974874" y="38.50000000000002" text-anchor="end">29</text>
			<circle cx="82.31088913245537" cy="34.50000000000003" r="2" inspiral:hole-name="35" />
      <text x="79.31088913245537" y="35.50000000000003" text-anchor="end">35</text>
			<circle cx="87.507041555162" cy="31.50000000000003" r="2" inspiral:hole-name="41" />
      <text x="84.507041555162" y="32.50000000000003" text-anchor="end">41</text>
		</mask>
    <path mask="url(#holes)"
          d="M 104 52
             A 52 52 0 1 0 0 52
             A 52 52 0 0 0 104 52
             Z" />
  </g>
</svg>
