<?xml version="1.0"?>
<svg xmlns="http://www.w3.org/2000/svg" xmlns:inspiral="http://nathanfriend.io/inspiral">
	<desc xmlns:inspiral="http://nathanfriend.io/inspiral">
		<entitlement-id>
			io.nathanfriend.inspiral.specialgears
		</entitlement-id>
		<package-id>
			io.nathanfriend.inspiral.specialgears
		</package-id>
		<gear-order>
			70008
		</gear-order>
		<inverted>
			false
		</inverted>
	</desc>
	<g>
		<path d="m 225.13516,12.158355 c 0.85472,-39.333041 -32.53774,-75.318059 -71.79272,-77.524485 -20.17626,-2.707682 -38.05364,7.953413 -55.875544,15.425193 -19.584014,7.871237 -41.248345,2.421831 -58.845685,-7.765559 -35.1389567,-18.983022 -82.437552,-2.111402 -100.302936,32.882195 -16.285802,28.9584139 -8.695863,64.369041 5.561412,92.479657 24.77933,48.581374 62.587933,89.534694 104.34306,124.113954 10.525104,6.47018 22.397207,21.99362 35.832918,14.7286 32.157505,-20.49978 58.826505,-48.53226 83.658725,-77.20489 25.47596,-31.352722 50.6694,-66.192157 56.79915,-107.11323 0.40143,-3.324513 0.6216,-6.672263 0.62162,-10.021435 z" />
	</g>
</svg>
