<?xml version="1.0"?>
<svg xmlns="http://www.w3.org/2000/svg" xmlns:inspiral="http://nathanfriend.io/inspiral">
	<desc xmlns:inspiral="http://nathanfriend.io/inspiral">
		<entitlement-id>
			io.nathanfriend.inspiral.specialgears
		</entitlement-id>
		<package-id>
			io.nathanfriend.inspiral.specialgears
		</package-id>
		<gear-order>
			70008
		</gear-order>
		<inverted>
			false
		</inverted>
	</desc>
	<g>
		<path d="m 225.87512,11.862658 c 0.859,-39.529706 -32.70043,-75.694649 -72.15168,-77.912108 -20.27714,-2.72122 -38.24391,7.99318 -56.154923,15.502319 -19.681934,7.910594 -41.454587,2.433941 -59.139913,-7.804386 -35.3146519,-19.077938 -82.84974,-2.121959 -100.804451,33.046606 -16.367231,29.1032055 -8.739342,64.690886 5.589219,92.942055 24.903227,48.824276 62.9008727,89.982366 104.864775,124.734526 10.57773,6.50253 22.509193,22.10359 36.012083,14.80224 32.31829,-20.60228 59.12064,-48.77492 84.07702,-77.59091 25.60334,-31.509489 50.92275,-66.523122 57.08314,-107.6488 0.40344,-3.341136 0.62471,-6.705624 0.62473,-10.071542 z" />
	</g>
</svg>
