<?xml version="1.0"?>
<svg xmlns="http://www.w3.org/2000/svg" xmlns:inspiral="http://nathanfriend.io/inspiral">
	<desc xmlns:inspiral="http://nathanfriend.io/inspiral">
		<entitlement-id>
			io.nathanfriend.inspiral.specialgears
		</entitlement-id>
		<package-id>
			io.nathanfriend.inspiral.specialgears
		</package-id>
		<gear-order>
			70002
		</gear-order>
		<inverted>
			true
		</inverted>
	</desc>
	<g>
		<path d="m 10.039666,-70.378894 c -2.2304443,-0.0021 -4.4860949,0.138947 -6.7704392,0.445506 -40.6347868,2.283987 -75.2009878,39.533812 -74.3162168,80.249402 1.9e-5,3.466898 0.227967,6.931993 0.643512,10.373357 6.345201,42.359446 32.424395,78.423411 58.795835,110.878189 24.757234,28.58605 49.655756,62.40261 91.215703,65.65889 41.55994,-3.25628 66.45846,-37.07284 91.2157,-65.65889 26.37144,-32.454775 52.45064,-68.518743 58.79584,-110.878189 0.41554,-3.441371 0.64349,-6.906462 0.64351,-10.373357 0.88477,-40.715598 -33.68143,-77.965418 -74.31622,-80.249402 -2.28434,-0.306561 -4.53999,-0.447617 -6.77044,-0.445506 -18.16222,0.0172 -34.63835,9.523998 -51.06891,16.412461 -6.031729,2.42428 -12.254087,3.627633 -18.49948,3.844566 -6.245396,-0.216938 -12.467749,-1.420286 -18.49948,-3.844566 -16.430562,-6.888466 -32.906688,-16.395259 -51.068914,-16.412461 z" />
	</g>
</svg>
