<?xml version="1.0"?>
<svg xmlns="http://www.w3.org/2000/svg" xmlns:inspiral="http://nathanfriend.io/inspiral">
	<desc xmlns:inspiral="http://nathanfriend.io/inspiral">
		<entitlement-id>
			io.nathanfriend.inspiral.specialgears
		</entitlement-id>
		<package-id>
			io.nathanfriend.inspiral.specialgears
		</package-id>
		<gear-order>
			70003
		</gear-order>
		<inverted>
			true
		</inverted>
	</desc>
	<g>
		<path id="shape" d="m -16.876346,-122.14714 c -3.093403,-0.003 -6.221765,0.1927 -9.389922,0.61787 -56.356386,3.16767 -104.296242,54.829443 -103.069162,111.297895 3e-5,4.8082405 0.31617,9.6139807 0.89249,14.3868085 8.80015,58.7483155 44.969392,108.7654265 81.543942,153.7769565 34.335808,39.646 68.867567,86.54618 126.507058,91.06232 57.63948,-4.51614 92.17123,-51.41632 126.50706,-91.06232 36.57454,-45.01153 72.74379,-95.028641 81.54395,-153.7769565 0.57631,-4.77283751 0.89245,-9.5785722 0.89248,-14.3868085 1.22708,-56.468463 -46.71277,-108.130235 -103.06916,-111.297895 -3.16815,-0.42517 -6.29652,-0.6208 -9.38993,-0.61787 -25.18919,0.0238 -48.03992,13.20883 -70.82747,22.762439 -8.365407,3.362234 -16.995195,5.031164 -25.65693,5.332028 -8.661739,-0.300871 -17.291521,-1.969794 -25.656928,-5.332028 -22.787547,-9.553609 -45.6382864,-22.738589 -70.827478,-22.762439 z" />
		<style>
			#clip {
			fill: green;
			opacity: 0.4;
			}
		</style>
		<path id="clip" d="M -29.492945,-109.90264 -100.37903,-73.860028 -114.59421,5.567139 -50.780745,140.34034 73.757044,240.50248 206.02894,137.97499 276.83863,10.006073 268.81074,-57.38284 195.66758,-113.16959 77.720657,-72.457671" />
	</g>
</svg>
