<?xml version="1.0"?>
<svg xmlns="http://www.w3.org/2000/svg" xmlns:inspiral="http://nathanfriend.io/inspiral">
	<desc xmlns:inspiral="http://nathanfriend.io/inspiral">
		<entitlement-id>
			io.nathanfriend.inspiral.specialgears
		</entitlement-id>
		<package-id>
			io.nathanfriend.inspiral.specialgears
		</package-id>
		<gear-order>
			70009
		</gear-order>
		<inverted>
			true
		</inverted>
	</desc>
	<g>
		<path d="m 39.084609,-14.516013 c -1.299229,-0.0013 -2.613141,0.08093 -3.943767,0.259505 -23.669682,1.330421 -43.8044214,23.0283661 -43.2890478,46.745116 1.26e-5,2.019461 0.1327914,4.037872 0.3748458,6.04246 3.696063,24.674292 18.887145,45.681479 34.248456,64.586322 14.421039,16.65132 28.924378,36.34939 53.132964,38.24617 24.20858,-1.89678 38.71192,-21.59485 53.13297,-38.24617 15.3613,-18.904843 30.55239,-39.91203 34.24845,-64.586322 0.24205,-2.004592 0.37483,-4.023001 0.37485,-6.04246 0.51537,-23.7167545 -19.61937,-45.414699 -43.28905,-46.745116 -1.33062,-0.178571 -2.64454,-0.260736 -3.94377,-0.259505 -10.57946,0.01 -20.176768,5.5477083 -29.747539,9.560224 C 86.8705,-3.5436507 83.245989,-2.8427001 79.60806,-2.7163372 75.97013,-2.842703 72.345621,-3.5436507 68.83215,-4.955789 59.261381,-8.9683047 49.66407,-14.505996 39.084609,-14.516013 Z" />
	</g>
</svg>
