<?xml version="1.0"?>
<svg xmlns="http://www.w3.org/2000/svg" xmlns:inspiral="http://nathanfriend.io/inspiral">
	<desc xmlns:inspiral="http://nathanfriend.io/inspiral">
		<entitlement-id>
			io.nathanfriend.inspiral.specialgears
		</entitlement-id>
		<package-id>
			io.nathanfriend.inspiral.specialgears
		</package-id>
		<gear-order>
			70004
		</gear-order>
		<inverted>
			false
		</inverted>
	</desc>
	<g>
		<path id="shape" d="M 239.03843,-114.29142 A 146.12316,146.12316 0 0 0 93.107043,26.970861 a 20.457244,20.457244 0 0 0 -0.191738,1.93841 20.457244,20.457244 0 0 0 0.08212,0.833364 146.12316,146.12316 0 0 0 -0.08212,2.089107 h 0.28762 A 20.457244,20.457244 0 0 0 113.3725,49.366514 20.457244,20.457244 0 0 0 133.54209,31.831742 h 0.28762 A 105.20868,105.20868 0 0 1 239.0384,-73.376933 105.20868,105.20868 0 0 1 344.24709,31.831742 h 0.28762 a 20.457244,20.457244 0 0 0 20.16959,17.534772 20.457244,20.457244 0 0 0 20.16957,-17.534772 h 0.28763 a 146.12316,146.12316 0 0 0 -0.0353,-2.570869 20.457244,20.457244 0 0 0 0.0353,-0.35169 20.457244,20.457244 0 0 0 -0.0845,-1.744363 146.12316,146.12316 0 0 0 -146.0387,-141.45633 z" />
		<style>
			#clip {
			fill: green;
			opacity: 0.4;
			}
		</style>
		<path id="clip" d="M 389.72462,-0.7145748 367.15835,-59.54951 326.3276,-97.953286 274.16487,-121.81943 206.61533,-120.95829 149.09254,-96.689736 108.59957,-53.849527 87.524703,1.0930026 85.7769,43.623567 110.1458,60.392872 138.83904,45.547801 157.93126,-22.929437 200.38044,-56.893738 277.5193,-59.371569 318.20168,-25.508933 340.30685,45.326998 367.22772,59.994853 392.00781,42.710488 Z" />
	</g>
</svg>
