<?xml version="1.0"?>
<svg xmlns="http://www.w3.org/2000/svg" xmlns:inspiral="http://nathanfriend.io/inspiral">
	<desc xmlns:inspiral="http://nathanfriend.io/inspiral">
		<entitlement-id>
			io.nathanfriend.inspiral.specialgears
		</entitlement-id>
		<package-id>
			io.nathanfriend.inspiral.specialgears
		</package-id>
		<gear-order>
			70006
		</gear-order>
		<inverted>
			false
		</inverted>
	</desc>
	<g>
		<path d="m -64.150292,-110.78925 a 146.12316,146.12316 0 0 0 -145.931388,141.262298 20.457244,20.457244 0 0 0 -0.19178,1.938412 20.457244,20.457244 0 0 0 0.0823,0.833359 146.12316,146.12316 0 0 0 -0.0823,2.089102 h 0.28768 a 20.457244,20.457244 0 0 0 20.16957,17.534781 20.457244,20.457244 0 0 0 20.16956,-17.534781 h 0.28767 A 105.20868,105.20868 0 0 1 -64.150292,-69.874761 105.20868,105.20868 0 0 1 41.058395,35.333921 h 0.262574 A 146.12322,146.12316 0 0 0 187.18158,175.61216 146.12322,146.12316 0 0 0 333.22026,34.155809 a 20.457252,20.457244 0 0 0 0.0845,-1.744349 20.457252,20.457244 0 0 0 -0.0353,-0.351602 146.12322,146.12316 0 0 0 0.0353,-2.570857 h -0.28771 a 20.457252,20.457244 0 0 0 -20.16958,-17.53478 20.457252,20.457244 0 0 0 -20.16959,17.53478 h -0.28762 A 105.20871,105.20868 0 0 1 187.18158,134.69768 105.20871,105.20868 0 0 1 81.97288,29.488997 H 81.806226 A 146.12316,146.12316 0 0 0 -64.150292,-110.78925 Z" />
	</g>
</svg>
