<?xml version="1.0"?>
<svg xmlns="http://www.w3.org/2000/svg" xmlns:inspiral="http://nathanfriend.io/inspiral">
	<desc xmlns:inspiral="http://nathanfriend.io/inspiral">
		<entitlement-id>
			io.nathanfriend.inspiral.specialgears
		</entitlement-id>
		<package-id>
			io.nathanfriend.inspiral.specialgears
		</package-id>
		<gear-order>
			70005
		</gear-order>
		<inverted>
			false
		</inverted>
	</desc>
	<g>
		<path id="shape" d="M -65.029954,176.61456 A 147.14602,147.14602 0 0 0 81.94826,35.35437 h 0.167821 A 105.94517,105.94514 0 0 1 188.06124,-70.590774 105.94517,105.94514 0 0 1 294.00638,35.354366 h 0.28964 a 20.600453,20.600445 0 0 0 20.31077,17.657524 20.600453,20.600445 0 0 0 20.31078,-17.657524 h 0.28972 a 147.14608,147.14602 0 0 0 -0.0355,-2.588853 20.600453,20.600445 0 0 0 0.0355,-0.354063 20.600453,20.600445 0 0 0 -0.0851,-1.756559 A 147.14608,147.14602 0 0 0 188.06124,-111.79165 147.14608,147.14602 0 0 0 41.179606,29.468532 H 40.915194 A 105.94514,105.94514 0 0 1 -65.029954,135.41367 105.94514,105.94514 0 0 1 -170.9751,29.468532 h -0.28969 a 20.600445,20.600445 0 0 0 -20.31074,-17.657525 20.600445,20.600445 0 0 0 -20.31076,17.657525 h -0.28969 a 147.14602,147.14602 0 0 0 0.0829,2.103725 20.600445,20.600445 0 0 0 -0.0829,0.839193 20.600445,20.600445 0 0 0 0.19312,1.951981 147.14602,147.14602 0 0 0 146.952906,142.251129 z" />
		<style>
			#clip {
			fill: green;
			opacity: 0.4;
			}
		</style>
		<path id="clip" d="M 341.66767,2.3206009 316.57209,-57.020197 275.74134,-95.423973 223.57861,-119.29012 156.02907,-118.42898 98.506278,-94.160423 54.978132,-50.308489 33.903265,1.0930026 32.661325,46.15288 -8.7562558,111.27127 -80.312237,127.26927 -141.50605,87.854245 -166.07674,15.460922 -193.71917,-0.63981475 -220.95664,16.689701 -217.70305,77.440564 -187.23443,129.20402 -135.86248,170.05209 -72.112031,186.22595 6.376641,173.70372 71.013029,118.83854 90.782091,49.594702 107.345,-20.400124 149.79418,-54.364425 226.93304,-56.842256 267.61542,-22.97962 289.21473,54.938388 316.64146,65.559342 343.445,47.769114 Z" />
	</g>
</svg>
