<?xml version="1.0"?>
<svg xmlns="http://www.w3.org/2000/svg" xmlns:inspiral="http://nathanfriend.io/inspiral">
	<desc xmlns:inspiral="http://nathanfriend.io/inspiral">
		<entitlement-id>
			io.nathanfriend.inspiral.specialgears
		</entitlement-id>
		<package-id>
			io.nathanfriend.inspiral.specialgears
		</package-id>
		<gear-order>
			70006
		</gear-order>
		<inverted>
			false
		</inverted>
	</desc>
	<g>
		<path d="m -65.029954,-111.79165 a 147.14602,-147.14602 0 0 0 -146.952906,142.251129 20.600445,-20.600445 0 0 0 -0.19312,1.951981 20.600445,-20.600445 0 0 0 0.0829,0.839193 147.14602,-147.14602 0 0 0 -0.0829,2.103725 h 0.28969 a 20.600445,-20.600445 0 0 0 20.31076,17.657525 20.600445,-20.600445 0 0 0 20.31074,-17.657525 h 0.28969 A 105.94514,-105.94514 0 0 1 -65.029954,-70.59076 105.94514,-105.94514 0 0 1 40.915194,35.354378 h 0.264412 A 147.14608,-147.14602 0 0 0 188.06124,176.61456 147.14608,-147.14602 0 0 0 335.12219,34.168019 a 20.600453,-20.600445 0 0 0 0.0851,-1.756559 20.600453,-20.600445 0 0 0 -0.0355,-0.354063 147.14608,-147.14602 0 0 0 0.0355,-2.588853 h -0.28972 A 20.600453,-20.600445 0 0 0 314.60679,11.81102 20.600453,-20.600445 0 0 0 294.29602,29.468544 h -0.28964 A 105.94517,-105.94514 0 0 1 188.06124,135.41368 105.94517,-105.94514 0 0 1 82.116081,29.46854 H 81.94826 A 147.14602,-147.14602 0 0 0 -65.029954,-111.79165 Z" />
	</g>
</svg>
