<?xml version="1.0"?>
<svg xmlns="http://www.w3.org/2000/svg" xmlns:inspiral="http://nathanfriend.io/inspiral">
  <desc xmlns:inspiral="http://nathanfriend.io/inspiral">
    <entitlement-id>
      io.nathanfriend.inspiral.pentagongears
    </entitlement-id>
    <package-id>
      io.nathanfriend.inspiral.pentagongears
    </package-id>
    <gear-order>
      60002
    </gear-order>
    <inverted>
      true
    </inverted>
  </desc>
  <g>
    <style>
      text {
        font-family: monospace;
        font-size: 4px;
      }
    </style>
    <mask id="holes">
      <rect width="100%" height="100%" fill="white" />
    </mask>

    <path mask="url(#holes)"
          d="M 206.6168938130637 138.4192831354356
             A 54 54 0 0 0 206.6168938130637 77.58071686456441
             A 270 270 0 0 0 167.4047535676896 23.609835967851375
             A 54 54 0 0 0 109.54383867372302 4.809685076745701
             A 270 270 0 0 0 46.09726298508004 25.42472717651767
             A 54 54 0 0 0 10.337250960443669 74.64416120305893
             A 270 270 0 0 0 10.337250960443654 141.35583879694104
             A 54 54 0 0 0 46.09726298507999 190.57527282348232
             A 270 270 0 0 0 109.543838673723 211.1903149232543
             A 54 54 0 0 0 167.40475356768957 192.39016403214868
             A 270 270 0 0 0 206.6168938130637 138.4192831354356
             Z" />
    <circle id="center-point" cx="108" cy="108" r="1" fill="#42d7f5" />
  </g>
</svg>
