<?xml version="1.0"?>
<svg xmlns="http://www.w3.org/2000/svg" xmlns:inspiral="http://nathanfriend.io/inspiral">
  <desc xmlns:inspiral="http://nathanfriend.io/inspiral">
    <entitlement-id>
      io.nathanfriend.inspiral.pentagongears
    </entitlement-id>
    <package-id>
      io.nathanfriend.inspiral.pentagongears
    </package-id>
    <gear-order>
      60001
    </gear-order>
    <inverted>
      true
    </inverted>
  </desc>
  <g>
    <style>
      text {
        font-family: monospace;
        font-size: 4px;
      }
    </style>
    <mask id="holes">
      <rect width="100%" height="100%" fill="white" />
    </mask>

    <path id="shape"
          mask="url(#holes)"
          d="M 189.39881932864176 126.8843428741493
             A 49.5 49.5 0 0 0 189.39881932864176 71.1156571258507
             A 247.5 247.5 0 0 0 153.4543574370488 21.642349637197093
             A 49.5 49.5 0 0 0 100.41518545091276 4.4088779870168935
             A 247.5 247.5 0 0 0 42.25582440299003 23.30599991180786
             A 49.5 49.5 0 0 0 9.475813380406692 68.42381443613735
             A 247.5 247.5 0 0 0 9.475813380406684 129.57618556386262
             A 49.5 49.5 0 0 0 42.255824402989994 174.69400008819213
             A 247.5 247.5 0 0 0 100.41518545091276 193.59112201298313
             A 49.5 49.5 0 0 0 153.45435743704877 176.35765036280296
             A 247.5 247.5 0 0 0 189.39881932864176 126.8843428741493
             Z" />
    <circle id="center-point" cx="99" cy="99" r="1" fill="#42d7f5" />

    <style>
      #clip {
        fill: green;
        opacity: 0.4;
      }
    </style>

    <ellipse id="clip"
             cx="99"
             cy="99"
             rx="78.58"
             ry="78.58" />
  </g>
</svg>
