<?xml version="1.0"?>
<svg xmlns="http://www.w3.org/2000/svg" xmlns:inspiral="http://nathanfriend.io/inspiral">
  <desc xmlns:inspiral="http://nathanfriend.io/inspiral">
    <entitlement-id>
      io.nathanfriend.inspiral.squaregears
    </entitlement-id>
    <package-id>
      io.nathanfriend.inspiral.squaregears
    </package-id>
    <gear-order>
      50001
    </gear-order>
    <inverted>
      true
    </inverted>
  </desc>
  <g>
    <style>
      text {
        font-family: monospace;
        font-size: 4px;
      }
    </style>
    <mask id="holes">
      <rect width="100%" height="100%" fill="white" />
    </mask>

    <path mask="url(#holes)"
          d="M 399.1484302961354 272.80160570157767
             A 105 105 0 0 0 399.1484302961354 147.19839429842233
             A 525 525 0 0 0 272.80160570157767 20.851569703864556
             A 105 105 0 0 0 147.19839429842233 20.851569703864556
             A 525 525 0 0 0 20.85156970386457 147.1983942984223
             A 105 105 0 0 0 20.85156970386454 272.80160570157767
             A 525 525 0 0 0 147.19839429842227 399.1484302961354
             A 105 105 0 0 0 272.8016057015776 399.1484302961355
             A 525 525 0 0 0 399.1484302961354 272.80160570157767
             Z" />
    <circle id="center-point" cx="210" cy="210" r="1" fill="#42d7f5" />
  </g>
</svg>
