<?xml version="1.0"?>
<svg xmlns="http://www.w3.org/2000/svg" xmlns:inspiral="http://nathanfriend.io/inspiral">
  <desc xmlns:inspiral="http://nathanfriend.io/inspiral">
    <entitlement-id>
      io.nathanfriend.inspiral.squaregears
    </entitlement-id>
    <package-id>
      io.nathanfriend.inspiral.squaregears
    </package-id>
    <gear-order>
      50002
    </gear-order>
    <inverted>
      true
    </inverted>
  </desc>
  <g>
    <style>
      text {
        font-family: monospace;
        font-size: 4px;
      }
    </style>
    <mask id="holes">
      <rect width="100%" height="100%" fill="white" />
    </mask>

    <path mask="url(#holes)"
          d="M 511.2901321412402 349.44586635106856
             A 134.5 134.5 0 0 0 511.2901321412402 188.55413364893144
             A 672.5 672.5 0 0 0 349.44586635106856 26.709867858759836
             A 134.5 134.5 0 0 0 188.55413364893144 26.709867858759836
             A 672.5 672.5 0 0 0 26.70986785875985 188.55413364893144
             A 134.5 134.5 0 0 0 26.70986785875982 349.44586635106856
             A 672.5 672.5 0 0 0 188.55413364893144 511.2901321412402
             A 134.5 134.5 0 0 0 349.4458663510685 511.2901321412402
             A 672.5 672.5 0 0 0 511.2901321412402 349.44586635106856
             Z" />
    <circle id="center-point" cx="269" cy="269" r="1" fill="#42d7f5" />
  </g>
</svg>
