<?xml version="1.0"?>
<svg xmlns="http://www.w3.org/2000/svg" xmlns:inspiral="http://nathanfriend.io/inspiral">
	<desc xmlns:inspiral="http://nathanfriend.io/inspiral">
		<entitlement-id>
			io.nathanfriend.inspiral.specialgears
		</entitlement-id>
		<package-id>
			io.nathanfriend.inspiral.specialgears
		</package-id>
		<gear-order>
			70007
		</gear-order>
		<inverted>
			false
		</inverted>
	</desc>
	<g>
		<path d="m 2591.7096,561.56572 c -38.9784,0 -60.6376,10.55093 -86.9602,29.13666 -22.9569,16.2094 -46.6885,28.30507 -75.3463,39.6872 -19.175,7.6007 -31.0381,8.4939 -31.6516,20.22186 0,10.86956 11.0243,9.69254 26.7239,9.69177 62.7392,-3.18691 105.338,-31.91132 166.7843,-32.32636 16.1375,0 40.9487,2.52705 68.4763,19.30176 8.689,5.29488 17.7584,10.94763 27.2351,16.27565 27.0343,16.55762 57.218,36.41572 95.2615,36.4157 38.9784,0 60.6377,-10.55093 86.9602,-29.13666 22.9569,-16.20939 46.6885,-28.28462 75.3463,-39.66675 19.175,-7.6007 31.0381,-8.51435 31.6517,-20.2423 0,-10.86956 -11.0243,-9.69255 -26.724,-9.69177 -62.7392,3.18691 -105.3379,31.91131 -166.7843,32.32635 -16.1374,0 -40.9487,-2.52704 -68.4763,-19.30176 -8.6889,-5.29488 -17.7584,-10.94762 -27.2351,-16.27564 -27.0343,-16.55762 -57.2179,-36.41572 -95.2615,-36.41571 z" />
	</g>
</svg>
