<?xml version="1.0"?>
<svg xmlns="http://www.w3.org/2000/svg" xmlns:inspiral="http://nathanfriend.io/inspiral">
	<desc xmlns:inspiral="http://nathanfriend.io/inspiral">
		<entitlement-id>
			io.nathanfriend.inspiral.specialgears
		</entitlement-id>
		<package-id>
			io.nathanfriend.inspiral.specialgears
		</package-id>
		<gear-order>
			70009
		</gear-order>
		<inverted>
			false
		</inverted>
	</desc>
	<g>
		<path id="shape" d="m 116.86081,-56.645992 c -17.641971,-8.084312 -32.303838,-7.113483 -42.777794,-2.983312 -10.456237,4.123184 -17.28062,11.551146 -23.166971,18.684341 -5.85384,7.092794 -10.699096,13.709203 -18.710682,19.381658 -8.641768,6.118643 -17.976141,9.426997 -36.9155941,15.1520566 -6.16e-5,3.2e-5 -9.46e-5,3.53e-5 -1.275e-4,3.86e-5 m 0.086049,0.086048 C -21.948678,0.11130893 -31.574733,10.49683 -36.303388,20.340341 c -4.728655,9.84351 -4.803658,19.421083 -4.08713,28.389727 0.778721,9.746928 2.383115,18.129236 0.930211,28.195857 -1.566998,10.857131 -5.796937,19.925118 -15.60624,38.233865 0,0 -1.26e-4,2.3e-4 -1.26e-4,2.3e-4 m 0.121691,0 c -8.08425,17.64191 -7.113445,32.30373 -2.98331,42.77767 4.12315,10.45621 11.55106,17.28059 18.684231,23.16692 7.09282,5.85386 13.709267,10.69909 19.381765,18.71066 6.118682,8.64172 9.427073,17.97607 15.1521503,36.91548 0,0 1.146e-4,3.8e-4 1.146e-4,3.8e-4 m 0.086049,-0.0861 c 6.436464,17.32428 16.8219351,26.95032 26.6654041,31.67898 9.843471,4.72866 19.421009,4.8037 28.389618,4.08717 9.746963,-0.77871 18.12928,-2.38315 28.195914,-0.93029 10.857133,1.56694 19.925132,5.79683 38.233856,15.60609 0,0 4.7e-4,2.5e-4 4.7e-4,2.5e-4 m 0,-0.12169 c 17.64183,8.08419 32.3036,7.11341 42.77752,2.98331 10.45619,-4.12312 17.28057,-11.55098 23.16687,-18.68412 5.85388,-7.09284 10.6991,-13.70933 18.71063,-19.38186 8.64169,-6.11872 17.97602,-9.42716 36.91538,-15.15225 0,0 6.3e-4,-1.9e-4 6.3e-4,-1.9e-4 m -0.0861,-0.0861 c 17.32418,-6.43646 26.95019,-16.82187 31.67887,-26.66531 4.72867,-9.84342 4.80375,-19.42093 4.08723,-28.3895 -0.77872,-9.747 -2.3832,-18.12933 -0.93038,-28.19597 1.56688,-10.85714 5.79673,-19.92515 15.60594,-38.23385 0,0 3.7e-4,-6.9e-4 3.7e-4,-6.9e-4 m -0.12169,0 c 8.08413,-17.641773 7.11337,-32.303489 2.98331,-42.777384 -4.12308,-10.456178 -11.55089,-17.280554 -18.68401,-23.166834 -7.09287,-5.853893 -13.70939,-10.699086 -19.38197,-18.71059 -6.11876,-8.641651 -9.42723,-17.975953 -15.15234,-36.91528 0,-1e-7 -2.7e-4,-8.835e-4 -2.7e-4,-8.835e-4 m -0.086,0.086049 c -6.43645,-17.3240915 -16.82182,-26.9500825 -26.66521,-31.6787645 -9.84339,-4.728681 -19.42086,-4.803787 -28.38939,-4.087279 -9.74713,0.778723 -18.12952,2.383259 -28.19629,0.930438 -10.85732,-1.566909 -19.92535,-5.796832 -38.23451,-15.60626" />
		<style>
			#clip {
			fill: green;
			opacity: 0.4;
			}
		</style>
		<ellipse id="clip" cx="116" cy="116" rx="181" ry="181" />
	</g>
</svg>
