<?xml version="1.0"?>
<svg xmlns="http://www.w3.org/2000/svg" xmlns:inspiral="http://nathanfriend.io/inspiral">
	<desc xmlns:inspiral="http://nathanfriend.io/inspiral">
		<entitlement-id>
			io.nathanfriend.inspiral.specialgears
		</entitlement-id>
		<package-id>
			io.nathanfriend.inspiral.specialgears
		</package-id>
		<gear-order>
			70000
		</gear-order>
		<inverted>
			true
		</inverted>
	</desc>
	<g>
		<path d="m 116.86081,-48.464767 c -16.80188,-7.699344 -30.765563,-6.774745 -40.740759,-2.841249 -9.958321,3.926842 -16.457733,11.001091 -22.063782,17.79461 -5.575086,6.755042 -10.189615,13.056384 -17.819697,18.458722 -8.230255,5.8272796 -17.120134,8.9780924 -35.1577088,14.43053025 -5.87e-5,3.043e-5 -9.01e-5,3.358e-5 -1.215e-4,3.673e-5 m 0.081951,0.0819508 C -15.338705,5.5898056 -24.506377,15.480778 -29.009858,24.85555 c -4.503481,9.374772 -4.574912,18.49627 -3.892504,27.037836 0.741639,9.282788 2.269633,17.265939 0.885915,26.853197 -1.492379,10.340125 -5.520893,18.976303 -14.863086,36.413207 0,0 -1.2e-4,2.2e-4 -1.2e-4,2.2e-4 m 0.115896,0 c -7.699285,16.80182 -6.774709,30.76545 -2.841247,40.74063 3.926809,9.9583 11.001009,16.45771 17.794505,22.06374 6.755067,5.5751 13.056445,10.18961 18.458824,17.81967 5.8273159,8.23021 8.978165,17.12007 14.4306195,35.1576 0,0 1.091e-4,3.7e-4 1.091e-4,3.7e-4 m 0.081951,-0.082 c 6.1299657,16.49931 16.0208897,25.66697 25.3956237,30.17045 9.374734,4.50349 18.496199,4.57496 27.037731,3.89255 9.282822,-0.74163 17.265981,-2.26967 26.853252,-0.88599 10.340126,1.49232 18.976315,5.52079 36.413199,14.86294 0,0 4.4e-4,2.4e-4 4.4e-4,2.4e-4 m 0,-0.1159 c 16.80175,7.69923 30.76534,6.77468 40.7405,2.84125 9.95828,-3.92678 16.45769,-11.00093 22.06369,-17.7944 5.57512,-6.75509 10.18961,-13.05651 17.81964,-18.45892 8.23018,-5.82735 17.12002,-8.97824 35.15751,-14.43071 0,0 6e-4,-1.8e-4 6e-4,-1.8e-4 m -0.082,-0.082 c 16.49922,-6.12996 25.66685,-16.02083 30.17035,-25.39553 4.5035,-9.37469 4.575,-18.49613 3.8926,-27.03762 -0.74164,-9.28286 -2.26971,-17.26603 -0.88608,-26.85331 1.49227,-10.34013 5.5207,-18.97633 14.8628,-36.41319 0,0 3.6e-4,-6.6e-4 3.6e-4,-6.6e-4 m -0.1159,0 c 7.69917,-16.801684 6.77464,-30.765223 2.84125,-40.740361 -3.92674,-9.958265 -11.00085,-16.45767 -17.7943,-22.063651 -6.75511,-5.575137 -13.05656,-10.189606 -18.45902,-17.81961 -5.82739,-8.230144 -8.97831,-17.119955 -14.4308,-35.15740946 0,-7e-8 -2.5e-4,-8.4141e-4 -2.5e-4,-8.4148e-4 m -0.0819,0.0819512 c -6.12995,-16.4991343 -16.02078,-25.6667453 -25.39544,-30.1702513 -9.37465,-4.503506 -18.49605,-4.575036 -27.03751,-3.892647 -9.28298,0.741641 -17.26621,2.26977 -26.85361,0.886131 -10.3403,-1.492294 -18.97652,-5.520792 -36.41382,-14.863104" />
	</g>
</svg>
